<svg width="1648" height="604" viewBox="0 0 1648 604" fill="none" xmlns="http://www.w3.org/2000/svg">
<path d="M68.2999 599.721L68.3921 598.326L57.2409 598.14L57.1488 597.395L40.3759 597.86V597.674L-38.8804 597.86V599.442H-31.692L-31.7842 599.907H-39.7098V601.488H-35.8391L-35.9313 602.233L-41 602.419L-40.7235 604H60.0978V602.884L71.5255 603.163L71.6176 601.581L64.9822 601.395V601.116L72.6314 601.395L73 599.907L68.2999 599.721ZM61.1116 592.837L56.5958 591.628H59.8214L60.0978 588.837L-8.92886 588L-9.20533 590.605L-5.15037 590.884L-11.1406 590.977V594.047H-6.99351V595.721L60.2822 595.256L61.1116 592.837Z" fill="#FECE04"/>
<path d="M1639.53 251.48L1641.13 251.797L1640.58 252.889L1638.98 252.572L1639 252.639L1640.41 253.151L1639.49 254.921L1640.23 255.023L1637.12 270.498L1636.75 270.446L1636.63 272.011L1635.27 271.852L1635.36 270.221L1635.28 270.242L1634.87 271.735L1632.2 271.331L1632.26 271.023L1629.66 270.599L1632.97 259.453L1632.86 259.407L1633.4 255.18L1627.8 252.758L1627.74 252.845L1622.24 251.417L1622.38 251.088L1621.91 250.991L1622.39 249.919L1622.94 249.996L1623.16 249.647L1622.67 249.483L1622.89 248.914L1622.79 248.868L1623.15 248.19L1621.74 247.678L1627.12 238.844L1627.01 238.798L1627.29 238.141L1618.83 232.443L1618.77 232.53L1613.28 229.933L1613.53 229.651L1612.98 229.353L1613.77 228.42L1614.29 228.65L1614.62 228.347L1614.07 228.05L1614.51 227.573L1614.38 227.46L1616.06 225.639L1616.73 226.269L1617.44 225.356L1631.75 233.416L1631.53 233.765L1633.14 234.369L1632.71 234.846L1634.43 235.497L1633.89 236.148L1635.01 236.589L1629.62 247.761L1639.75 251.131L1639.53 251.48Z" fill="#FECE04"/>
<path d="M48.2066 379.042C50.5298 379.042 52.4132 377.466 52.4132 375.521C52.4132 373.576 50.5298 372 48.2066 372C45.8834 372 44 373.576 44 375.521C44 377.466 45.8834 379.042 48.2066 379.042Z" fill="white"/>
<path d="M58.3023 379.042C60.6255 379.042 62.5089 377.466 62.5089 375.521C62.5089 373.576 60.6255 372 58.3023 372C55.9791 372 54.0957 373.576 54.0957 375.521C54.0957 377.466 55.9791 379.042 58.3023 379.042Z" fill="white"/>
<path d="M68.398 379.042C70.7212 379.042 72.6046 377.466 72.6046 375.521C72.6046 373.576 70.7212 372 68.398 372C66.0748 372 64.1914 373.576 64.1914 375.521C64.1914 377.466 66.0748 379.042 68.398 379.042Z" fill="white"/>
<path d="M220.771 6.73767L218.877 9.74292L220.909 10.6467L195.446 65.486L194.793 65.1186L192.615 70.7343L191.174 70.0605L188.259 69.7204L188.186 69.9188L192.458 71.467L190.842 76.1675L123.845 52.6036L125.399 47.7656L127.369 48.5319L127.661 47.7383L125.1 46.7422L126.717 42.0417L131.445 43.8808L133.265 41.0739L184.502 58.5077L201.898 24.682L201.701 24.6053L210.348 4.15763L211.001 4.52501L211.927 2.61777L214.156 3.59815L213.292 5.64294L214.08 5.94942L214.872 4.10305L216.116 4.7003L216.397 4.24264L220.771 6.73767ZM192.502 64.0007L192.305 63.9241L191.586 65.5721L191.845 65.7862L192.502 64.0007ZM145.63 37.1523L142.941 38.034L141.948 35.8339L192.726 12.2707L193.408 13.7832L198.892 10.8137L200.081 13.0904L196.83 14.8874L197.016 15.3L200.683 12.9844L201.872 15.2611L199.702 16.5711L200.632 18.6337L195.221 21.4049L195.644 22.7034L186.965 25.7905L187.089 26.0655L147.059 44.2848L146.005 41.9472L149.65 40.3034L149.205 39.6767L145.352 41.5798L144.163 39.3031L146.188 38.3899L145.63 37.1523ZM167.048 47.184L167.497 45.6577L166.096 45.7931L165.042 43.4555L165.312 43.3338L164.32 41.1336L169.821 39.6452L169.449 38.8201L187.268 30.7838L189.077 34.4356L187.727 35.0444L190.175 35.4296L191.23 37.7673L190.358 37.995L191.164 39.7826L187.946 40.572L188.504 41.8095L169.493 49.722L169.245 49.172L168.165 49.6591L167.048 47.184Z" fill="#FFD000"/>
</svg>
