<svg width="40" height="40" viewBox="0 0 40 40" fill="none" xmlns="http://www.w3.org/2000/svg">
<rect width="40" height="40" rx="20" fill="white"/>
<path d="M21.0281 10C22.1531 10.003 22.7241 10.009 23.2171 10.023L23.4111 10.03C23.6351 10.038 23.8561 10.048 24.1231 10.06C25.1871 10.11 25.9131 10.278 26.5501 10.525C27.2101 10.779 27.7661 11.123 28.3221 11.678C28.8306 12.1779 29.224 12.7826 29.4751 13.45C29.7221 14.087 29.8901 14.813 29.9401 15.878C29.9521 16.144 29.9621 16.365 29.9701 16.59L29.9761 16.784C29.9911 17.276 29.9971 17.847 29.9991 18.972L30.0001 19.718V21.028C30.0025 21.7574 29.9949 22.4868 29.9771 23.216L29.9711 23.41C29.9631 23.635 29.9531 23.856 29.9411 24.122C29.8911 25.187 29.7211 25.912 29.4751 26.55C29.2248 27.2178 28.8312 27.8226 28.3221 28.322C27.8221 28.8303 27.2174 29.2238 26.5501 29.475C25.9131 29.722 25.1871 29.89 24.1231 29.94C23.8858 29.9512 23.6485 29.9612 23.4111 29.97L23.2171 29.976C22.7241 29.99 22.1531 29.997 21.0281 29.999L20.2821 30H18.9731C18.2434 30.0025 17.5136 29.9949 16.7841 29.977L16.5901 29.971C16.3527 29.962 16.1154 29.9517 15.8781 29.94C14.8141 29.89 14.0881 29.722 13.4501 29.475C12.7828 29.2244 12.1783 28.8308 11.6791 28.322C11.1701 27.8223 10.7763 27.2176 10.5251 26.55C10.2781 25.913 10.1101 25.187 10.0601 24.122C10.0489 23.8847 10.0389 23.6474 10.0301 23.41L10.0251 23.216C10.0067 22.4868 9.99833 21.7574 10.0001 21.028V18.972C9.9973 18.2426 10.0046 17.5132 10.0221 16.784L10.0291 16.59C10.0371 16.365 10.0471 16.144 10.0591 15.878C10.1091 14.813 10.2771 14.088 10.5241 13.45C10.7752 12.7819 11.1698 12.177 11.6801 11.678C12.1792 11.1695 12.7832 10.776 13.4501 10.525C14.0881 10.278 14.8131 10.11 15.8781 10.06C16.1441 10.048 16.3661 10.038 16.5901 10.03L16.7841 10.024C17.5133 10.0062 18.2427 9.99857 18.9721 10.001L21.0281 10ZM20.0001 15C18.674 15 17.4022 15.5268 16.4646 16.4645C15.5269 17.4021 15.0001 18.6739 15.0001 20C15.0001 21.3261 15.5269 22.5979 16.4646 23.5355C17.4022 24.4732 18.674 25 20.0001 25C21.3262 25 22.5979 24.4732 23.5356 23.5355C24.4733 22.5979 25.0001 21.3261 25.0001 20C25.0001 18.6739 24.4733 17.4021 23.5356 16.4645C22.5979 15.5268 21.3262 15 20.0001 15ZM20.0001 17C20.3941 16.9999 20.7842 17.0775 21.1482 17.2282C21.5122 17.3789 21.8429 17.5998 22.1216 17.8783C22.4002 18.1569 22.6212 18.4875 22.772 18.8515C22.9229 19.2154 23.0005 19.6055 23.0006 19.9995C23.0007 20.3935 22.9231 20.7836 22.7724 21.1476C22.6217 21.5116 22.4008 21.8423 22.1223 22.121C21.8437 22.3996 21.5131 22.6206 21.1491 22.7714C20.7851 22.9223 20.3951 22.9999 20.0011 23C19.2054 23 18.4424 22.6839 17.8798 22.1213C17.3172 21.5587 17.0011 20.7956 17.0011 20C17.0011 19.2044 17.3172 18.4413 17.8798 17.8787C18.4424 17.3161 19.2054 17 20.0011 17M25.2511 13.5C24.9196 13.5 24.6016 13.6317 24.3672 13.8661C24.1328 14.1005 24.0011 14.4185 24.0011 14.75C24.0011 15.0815 24.1328 15.3995 24.3672 15.6339C24.6016 15.8683 24.9196 16 25.2511 16C25.5826 16 25.9006 15.8683 26.135 15.6339C26.3694 15.3995 26.5011 15.0815 26.5011 14.75C26.5011 14.4185 26.3694 14.1005 26.135 13.8661C25.9006 13.6317 25.5826 13.5 25.2511 13.5Z" fill="black"/>
</svg>
