<svg width="777" height="400" viewBox="0 0 777 400" fill="none" xmlns="http://www.w3.org/2000/svg">
<path d="M149.348 54.1048C149.415 54.2725 149.466 54.4402 149.499 54.6079C149.533 54.7421 149.583 54.893 149.65 55.0608L149.801 55.9664L148.895 56.0671C148.661 55.4297 148.409 54.9098 148.141 54.5073C148.208 54.7756 148.275 55.1111 148.342 55.5136C148.342 55.5807 148.342 55.6645 148.342 55.7652C148.376 55.8323 148.392 55.9161 148.392 56.0167V56.4696H147.487V56.1174C147.319 56.1509 147.067 56.1677 146.732 56.1677L146.631 55.4633L146.38 54.8092C146.246 54.4067 146.028 54.088 145.726 53.8532L145.223 53.5513C145.055 53.4842 144.837 53.4172 144.568 53.3501C144.501 53.3501 144.434 53.3501 144.367 53.3501C144.334 53.3165 144.283 53.2998 144.216 53.2998H144.015L143.914 53.2494H143.814C143.68 53.2494 143.545 53.2494 143.411 53.2494C143.277 53.2494 143.143 53.2662 143.009 53.2998L143.059 53.6016C142.556 53.6687 142.153 53.7861 141.851 53.9538C141.449 54.1216 141.097 54.3396 140.795 54.6079C140.594 54.7756 140.392 54.9434 140.191 55.1111C140.023 55.2788 139.822 55.48 139.587 55.7148L138.883 56.3689C138.648 56.6037 138.363 56.8385 138.028 57.0733C137.692 57.3081 137.357 57.4926 137.021 57.6268C136.652 57.8616 136.267 57.9958 135.864 58.0293C135.663 58.0964 135.462 58.1467 135.26 58.1803C135.059 58.1803 134.875 58.197 134.707 58.2306H133.55C133.382 58.197 133.197 58.1803 132.996 58.1803C132.795 58.1467 132.61 58.0964 132.443 58.0293C132.241 57.9958 132.04 57.9455 131.839 57.8784C131.638 57.8113 131.453 57.7442 131.285 57.6771C130.816 57.4423 130.464 57.2243 130.229 57.023C130.061 56.9224 129.91 56.8218 129.776 56.7211C129.642 56.587 129.491 56.4528 129.323 56.3186C129.055 56.0503 128.82 55.8155 128.619 55.6142C128.417 55.3794 128.233 55.1614 128.065 54.9601C127.898 54.7924 127.73 54.6415 127.562 54.5073C127.394 54.3396 127.227 54.2054 127.059 54.1048C126.724 53.87 126.371 53.7023 126.002 53.6016C125.801 53.5346 125.583 53.501 125.348 53.501C125.147 53.501 124.912 53.501 124.644 53.501C124.174 53.501 123.738 53.5513 123.336 53.652C122.967 53.7526 122.631 53.9035 122.329 54.1048C122.162 54.239 122.011 54.3731 121.877 54.5073C121.742 54.6415 121.625 54.7924 121.524 54.9601C121.29 55.3291 121.122 55.6981 121.021 56.0671L119.713 55.6645C119.814 55.3626 119.931 55.0775 120.065 54.8092C120.199 54.5073 120.367 54.2222 120.568 53.9538C120.233 54.2893 119.948 54.675 119.713 55.1111C119.579 55.2788 119.462 55.4968 119.361 55.7652C119.227 56 119.143 56.2348 119.109 56.4696L118.908 56.4193C118.807 56.4193 118.724 56.4025 118.656 56.3689C118.556 56.3689 118.405 56.3354 118.204 56.2683C118.271 56.0671 118.304 55.9497 118.304 55.9161C118.371 55.7149 118.405 55.5807 118.405 55.5136L118.707 54.8092C118.573 54.7757 118.371 54.6918 118.103 54.5576C118.304 54.0545 118.522 53.6352 118.757 53.2998C119.059 52.8972 119.378 52.5283 119.713 52.1928C120.082 51.8239 120.485 51.5387 120.921 51.3375C121.357 51.0691 121.793 50.8847 122.229 50.784L122.178 50.3312C122.883 50.0964 123.654 49.979 124.493 49.979H125.046C125.147 49.979 125.231 49.9958 125.298 50.0293C125.399 50.0293 125.499 50.0293 125.6 50.0293C125.801 50.0629 125.986 50.0964 126.153 50.1299C126.355 50.1299 126.556 50.1635 126.757 50.2306C126.958 50.2977 127.16 50.3647 127.361 50.4318C127.562 50.4654 127.747 50.5325 127.914 50.6331C128.283 50.7673 128.652 50.9685 129.021 51.2369C129.323 51.4046 129.625 51.6394 129.927 51.9413C130.229 52.2096 130.48 52.4612 130.682 52.696L131.839 53.9538C132.174 54.2557 132.51 54.4738 132.845 54.6079C133.147 54.7421 133.566 54.8092 134.103 54.8092C134.573 54.8092 134.992 54.7589 135.361 54.6582C135.73 54.4905 136.099 54.2725 136.468 54.0042L137.726 52.7966C137.96 52.5618 138.212 52.327 138.48 52.0922C138.749 51.8574 139.051 51.6394 139.386 51.4381C139.721 51.2033 140.057 51.0188 140.392 50.8847C140.795 50.717 141.164 50.5828 141.499 50.4821C142.237 50.2809 142.975 50.1803 143.713 50.1803H144.317C144.417 50.2138 144.602 50.2306 144.87 50.2306C145.273 50.2977 145.675 50.3983 146.078 50.5325C146.279 50.5995 146.48 50.6834 146.682 50.784C146.883 50.8511 147.067 50.9517 147.235 51.0859C147.403 51.1866 147.571 51.3039 147.738 51.4381C147.906 51.5723 148.074 51.7232 148.241 51.891C148.409 52.0587 148.543 52.2264 148.644 52.3941C148.778 52.5618 148.912 52.7295 149.046 52.8972C149.147 53.065 149.231 53.2494 149.298 53.4507C149.399 53.6184 149.482 53.7861 149.55 53.9538L149.348 54.1048Z" fill="#FFD000"/>
<path d="M763.846 338.113H764.055L764.013 339.119L764.726 339.161L764.768 338.197H765.02L764.978 339.119L765.355 339.161V339.413L766.739 339.287L766.697 337.694H767.326L767.494 332.411L767.619 332.579L770.47 329.35L770.219 329.098L774.789 324.78L773.867 323.857L773.992 323.732L772.735 322.516L772.441 322.809L771.728 322.138L767.661 326.75L767.829 321.174L776.131 313.585L775.208 312.537L774.957 312.788L774.831 312.62L775.166 312.285L774.202 311.237L773.615 311.824L772.902 311.237L767.997 315.555L768.206 309.602H767.955L768.164 306.792L767.494 306.708L767.284 309.56H767.242L767.284 306.792L765.9 306.75V307.212L764.559 307.254L764.475 327.841H764.391L763.846 338.113Z" fill="#FFD000"/>
<path d="M379.3 260.461L379.367 261.468L371.25 261.602L371.183 262.139L358.973 261.803V261.937L301.279 261.803V260.663H306.512L306.445 260.327H300.676V259.187H303.493L303.426 258.65L299.736 258.516L299.938 257.375H373.33V258.181L381.648 257.979L381.715 259.12L376.885 259.254V259.455L382.453 259.254L382.722 260.327L379.3 260.461ZM374.068 265.426L370.78 266.298H373.128L373.33 268.311L323.082 268.914L322.881 267.036L325.833 266.835L321.472 266.768V264.554H324.491V263.346L373.464 263.682L374.068 265.426Z" fill="#FFD000"/>
<path d="M120.868 147.505L122.294 148.344L121.371 149.434L119.946 148.595V148.679L121.12 149.685L119.61 151.446L120.281 151.782L111.812 168.637L111.476 168.469L110.805 170.23L109.547 169.643L110.218 167.799H110.134L109.212 169.392L106.78 168.134L106.948 167.799L104.6 166.541L111.728 154.717L111.644 154.633L113.656 149.937L109.128 145.492L109.044 145.576L104.264 142.306L104.516 141.97L104.097 141.719L104.935 140.629L105.438 140.88L105.774 140.545L105.355 140.209L105.774 139.622L105.69 139.539L106.277 138.868L105.103 137.861L113.405 129.308L113.321 129.224L113.824 128.553L107.703 119.497L107.619 119.581L103.258 114.968L103.594 114.717L103.174 114.214L104.264 113.375L104.684 113.794L105.103 113.543L104.684 113.04L105.271 112.62L105.187 112.453L107.451 110.859L107.87 111.782L108.877 110.943L119.778 124.444L119.443 124.78L120.784 125.954L120.197 126.373L121.623 127.631L120.868 128.218L121.791 129.056L112.65 140.293L121.204 147.17L120.868 147.505Z" fill="#FFD000"/>
<path d="M18.5631 302.642L19.9886 303.48L19.0662 304.571L17.6406 303.732V303.816L18.8146 304.822L17.3052 306.583L17.9761 306.919L9.50646 323.774L9.17103 323.606L8.50017 325.367L7.24231 324.78L7.91316 322.935H7.82931L6.90688 324.529L4.47501 323.271L4.64272 322.935L2.29472 321.677L9.4226 309.854L9.33874 309.77L11.3513 305.074L6.82302 300.629L6.73916 300.713L1.95929 297.443L2.21086 297.107L1.79157 296.856L2.63015 295.765L3.13329 296.017L3.46872 295.682L3.04943 295.346L3.46872 294.759L3.38486 294.675L3.97187 294.004L2.79786 292.998L11.0997 284.445L11.0159 284.361L11.519 283.69L5.39744 274.633L5.31358 274.717L0.952998 270.105L1.28843 269.854L0.869141 269.35L1.95929 268.512L2.37857 268.931L2.79786 268.68L2.37857 268.176L2.96558 267.757L2.88172 267.589L5.14587 265.996L5.56516 266.919L6.57145 266.08L17.4729 279.581L17.1375 279.916L18.4792 281.09L17.8922 281.51L19.3178 282.768L18.5631 283.355L19.4855 284.193L10.345 295.43L18.8985 302.306L18.5631 302.642Z" fill="#FFD000"/>
<path d="M307.2 50.9853C306.613 51.9916 305.775 52.1593 304.685 52.1593C304.349 52.2432 301.414 52.6625 296.047 52.6625C293.615 52.6625 289.506 43.7736 288.668 42.0126C285.314 36.8973 282.211 31.4465 278.605 26.4989C278.437 26.1635 278.102 26.1635 277.85 26.1635C277.599 26.3312 277.347 26.5828 277.347 26.8344C277.347 27.9245 277.347 29.0147 277.263 30.021L277.012 40.1677C277.012 40.587 277.347 41.0063 277.85 41.0901H278.27C278.689 41.0901 279.611 41.174 280.534 41.174C282.295 41.2579 283.133 41.3417 283.133 42.935C283.133 43.522 283.133 48.6373 283.049 48.8889C282.882 51.2369 281.624 52.327 279.276 52.327C278.437 52.327 277.599 52.2432 277.012 52.1593C276.173 52.0755 274.58 52.0755 272.567 52.0755C269.884 52.0755 266.613 52.1593 264.182 52.327H262.84C262.001 52.327 261.079 52.327 260.324 52.0755C258.228 51.5723 257.976 49.4759 257.976 47.631C257.976 46.6247 258.144 45.3669 258.144 44.2767C258.311 40.9224 259.15 41.0063 262.756 41.0063H263.259C263.762 40.9224 264.098 40.587 264.098 40.0838V33.8784C264.098 31.2788 263.93 28.6792 263.93 26.0797C263.93 21.5514 264.014 16.9392 264.182 12.4109V12.327C264.182 12.1593 264.182 11.9916 264.014 11.8239C263.846 11.74 263.678 11.6562 263.511 11.6562C262.421 11.74 261.247 11.6562 260.324 11.4046C258.479 10.7338 258.144 9.47589 258.144 7.63103C258.144 6.12159 258.479 4.61216 258.563 3.52201C258.898 0.33543 259.653 0.335431 262.421 0.335431C260.576 0.335431 272.148 0 274.244 0C276.005 0 277.599 3.01887 278.353 4.27673L282.127 9.81132C284.559 13.4172 286.739 17.3585 289.339 20.7966C290.68 22.4738 292.19 24.1509 293.615 25.9119C293.783 26.1635 294.119 26.2474 294.37 26.1635C294.706 26.0797 294.957 25.8281 294.957 25.4927V24.5702C295.041 21.6352 295.041 18.7002 295.041 15.6813C295.041 14.4235 294.957 13.1656 294.622 12.2432C294.454 11.8239 294.035 11.5723 293.699 11.5723C292.609 11.6562 291.184 11.6562 290.093 11.3208C289.423 11.0692 288.919 10.7338 288.584 10.3983C287.913 9.39203 287.745 7.71488 287.745 6.28931C287.745 5.28302 287.829 4.27673 287.829 3.52201C287.997 0.167715 288.752 0.167716 292.525 0.251573C292.945 0.251573 296.718 0 300.911 0C302.253 0 310.387 0.167716 311.813 0.754718C313.154 1.34172 312.819 2.09644 312.819 3.68973C312.819 4.5283 312.903 5.53459 312.903 6.54088C312.903 7.04402 312.903 7.63103 312.819 8.05031C312.567 10.9853 312.064 11.5723 309.045 11.5723H308.794C308.207 11.5723 307.787 11.9916 307.787 12.4109C307.62 13.7526 307.536 15.9329 307.536 16.2683V17.6101C307.787 22.1384 308.458 26.5828 308.207 31.195L308.123 45.1992C308.123 48.3019 307.787 49.979 307.2 50.9853ZM326.764 52.6625C316.618 52.7463 310.161 46.8763 308.148 37.2327C307.98 36.0587 307.896 34.8847 307.813 33.7107C307.645 22.8092 314.605 13.0818 325.926 12.8302C328.945 12.7463 331.88 13.4172 334.228 15.0105C338.421 17.5262 341.943 23.5639 341.943 28.5115C341.943 30.5241 341.691 32.5367 341.523 34.6331C341.523 35.304 341.188 36.0587 340.517 36.1426L320.307 36.3941C320.559 41.174 322.991 42.935 325.758 42.8511C328.861 42.7673 329.448 41.0063 329.783 39.5807C330.035 38.5744 330.119 37.9036 331.041 37.9036C334.311 38.1551 336.492 37.9874 339.762 38.0713C340.098 38.0713 340.265 38.1551 340.349 38.3228C340.517 38.4906 340.601 38.6583 340.601 38.9098C340.601 39.2453 340.517 39.5807 340.349 40.0838C338.924 48.6373 334.228 52.4947 326.764 52.6625ZM320.894 26.0797C323.41 26.1635 327.351 26.3312 329.951 26.2474C329.951 24.2348 328.106 22.4738 325.926 22.4738C323.158 22.4738 320.894 24.2348 320.894 26.0797ZM386.089 53.0817C385.418 53.2495 384.664 53.3333 383.825 53.3333H379.381C378.71 53.3333 378.039 53.2495 377.62 52.914C376.278 51.9916 375.775 49.392 375.356 47.9664C374.349 45.1153 373.594 42.1803 372.672 39.2453C372.42 38.5744 372.169 37.9874 372.001 37.3166C371.834 36.8134 371.582 36.5618 371.33 36.5618C370.995 36.5618 370.743 36.8973 370.576 37.3166L369.905 39.2453C368.982 42.1803 368.228 45.1153 367.305 47.9664C366.718 49.392 366.299 51.9916 364.957 52.914C364.538 53.2495 363.867 53.3333 363.196 53.3333H358.668C357.913 53.3333 357.158 53.2495 356.404 53.0817C354.475 52.6625 354.307 50.9853 353.553 49.2243C352.546 46.3732 351.372 43.6059 350.198 40.8386C349.108 38.0713 348.437 34.9685 347.683 32.1174C347.179 30.5241 346.844 28.847 346.341 27.3375C346.257 27.0859 346.089 26.4989 345.838 25.9958C345.67 25.4927 345.251 25.1572 344.831 25.2411H343.574C342.483 25.2411 341.309 25.3249 340.639 24.8218C340.219 24.4864 339.884 23.9832 339.8 23.2285C339.632 21.8868 339.632 20.4612 339.716 19.1195C339.716 16.5199 339.8 14.9266 342.4 14.2558C342.735 14.2558 343.993 14.1719 345.754 14.2558C346.089 14.3396 346.425 14.3396 346.844 14.3396C349.192 14.2558 351.792 14.0042 354.223 14.088C354.894 14.088 357.913 14.088 358.249 14.0042C359.255 13.9203 360.261 14.0042 360.932 14.4235C362.274 15.1782 362.274 19.4549 362.274 20.7966C362.274 22.3899 362.022 23.8994 361.184 24.7379C360.597 25.1572 359.674 25.3249 358.752 25.3249C358.5 25.3249 358.249 25.4927 357.997 25.7442C357.829 25.9119 357.745 26.2474 357.913 26.4989C357.997 26.9182 358.081 27.2537 358.249 27.5891C358.584 28.3438 359.087 29.0147 359.423 29.7694L359.926 30.9434C359.926 31.1111 360.093 31.195 360.261 31.195C360.345 31.195 360.513 31.1111 360.597 30.9434C361.603 29.0985 368.395 18.4486 369.318 16.6876C369.989 15.0943 370.743 14.5912 371.33 14.5912C371.833 14.5912 372.337 15.2621 373.259 16.6038C373.93 17.7778 381.142 29.0147 381.98 30.9434C382.064 31.1111 382.148 31.195 382.316 31.195C382.483 31.195 382.651 31.1111 382.651 30.9434L383.154 29.7694C383.406 29.0147 383.909 28.3438 384.328 27.5891C384.412 27.2537 384.58 26.9182 384.664 26.4989C384.748 26.4989 384.748 26.3312 384.748 26.2474C384.748 26.0797 384.664 25.8281 384.496 25.7442C384.412 25.4927 384.077 25.3249 383.741 25.3249C380.639 25.3249 380.303 23.5639 380.303 20.7966C380.303 19.1195 380.471 17.4423 380.639 16.4361C380.722 15.4298 381.058 14.7589 381.645 14.4235C382.316 14.0042 383.238 13.9203 384.328 14.0042C384.748 14.088 387.599 14.088 388.27 14.088C390.785 14.0042 393.385 14.2558 395.817 14.3396C396.152 14.3396 396.488 14.3396 396.823 14.2558C398.584 14.1719 399.842 14.2558 400.177 14.2558C400.848 14.4235 401.519 14.5073 401.771 14.8428C401.938 15.0943 402.19 15.2621 402.274 15.5975C402.777 16.6876 402.861 17.9455 402.861 19.1195C402.861 20.4612 402.861 21.8868 402.693 23.2285C402.609 23.9832 402.358 24.4864 401.938 24.8218C401.184 25.3249 400.177 25.2411 399.003 25.2411H397.578C397.158 25.2411 396.823 25.5765 396.655 25.9958C395.984 28.0084 395.397 30.1048 394.894 32.1174C394.14 34.9685 393.469 38.0713 392.295 40.8386L388.94 49.2243C388.27 50.9853 388.102 52.6625 386.089 53.0817ZM431.316 52.4947C430.897 52.4947 430.478 52.5786 429.974 52.5786C426.788 52.5786 425.278 51.74 425.278 48.4696C425.278 47.044 425.53 45.4507 425.698 44.3606C425.865 42.6834 426.201 41.9287 426.872 41.5094C427.459 41.174 428.381 41.174 429.89 41.174C429.974 41.174 430.645 41.174 431.819 41.0901H432.658C433.161 41.0901 433.58 40.587 433.58 40.1677V37.9874C433.413 35.5555 433.245 33.0398 431.987 30.8595C430.31 27.8407 428.381 25.0734 426.788 22.0545C425.362 19.2872 423.853 16.6876 422.176 14.088C421.337 12.9979 418.905 11.74 417.647 11.74C416.725 11.74 415.467 11.74 414.461 11.4885C413.79 11.2369 413.287 10.9853 412.951 10.4822C412.448 9.81132 412.28 8.80503 412.28 7.71488C412.28 6.28931 412.616 4.69602 412.784 3.60587C412.867 2.09644 413.119 1.34172 413.622 0.922432C414.209 0.33543 415.215 0.419287 416.893 0.419287C417.312 0.419287 421.169 0.251573 425.278 0.251573C428.633 0.251573 432.239 0.251573 435.593 0.587003C436.683 0.67086 437.605 0.922433 437.941 1.59329C438.192 2.01258 438.192 2.43187 438.192 3.18658V3.9413C438.192 4.69602 438.276 5.7023 438.276 6.70859C438.276 8.21803 438.109 9.97903 436.935 11.0692C436.264 11.4885 435.593 11.74 434.754 11.74C434.67 11.74 434.587 11.74 434.587 11.8239C434.503 11.9916 434.503 12.0755 434.587 12.1593C435.006 12.7463 435.509 13.2495 435.677 13.6688C436.348 14.7589 436.935 15.9329 437.689 17.1069C438.192 17.7778 438.612 18.6163 439.031 19.4549C439.115 19.6226 439.366 19.7904 439.618 19.7904C439.87 19.7904 440.037 19.6226 440.121 19.4549C441.295 16.8553 442.805 14.4235 444.566 12.0755C444.649 12.0755 444.649 11.9916 444.649 11.8239C444.566 11.74 444.482 11.74 444.314 11.74L443.308 11.4885C442.637 11.2369 442.05 10.9853 441.798 10.4822C441.295 9.81132 441.127 8.80503 441.127 7.71488C441.127 6.37316 441.463 1.59329 442.553 0.838574C443.14 0.33543 444.146 0.419287 445.656 0.419287C446.075 0.419287 449.932 0.251573 454.041 0.251573C457.48 0.251573 461.002 0.251573 464.44 0.587003C465.446 0.67086 466.368 0.838575 466.788 1.50943C466.955 1.92872 467.039 2.68344 466.955 3.18658V3.9413C466.955 4.69602 467.039 5.7023 467.039 6.70859C467.039 11.4046 465.614 11.6562 461.672 11.6562C460.498 11.6562 459.66 11.8239 458.905 12.8302C457.731 14.675 456.138 16.7715 454.88 18.2809C449.765 24.7379 446.327 30.608 446.327 38.9098L446.41 40.587C446.41 40.9224 446.662 41.2579 447.081 41.2579H449.345C449.849 41.2579 450.771 41.2579 451.693 41.3417C452.7 41.5094 453.706 41.5933 454.041 42.2641C454.209 42.5996 454.209 43.1027 454.209 43.9413V44.6121C454.209 45.5346 454.293 46.5409 454.293 47.5472C454.293 49.0566 454.125 50.8176 452.951 51.8239C452.28 52.327 451.358 52.5786 450.352 52.4947C446.494 52.2432 443.979 52.0755 440.96 52.0755C438.444 52.0755 435.593 52.1593 431.316 52.4947ZM490.66 53.3333C487.222 53.3333 483.7 52.327 481.184 49.979C477.746 51.9077 473.553 53.0817 469.696 53.0817C464.161 53.0817 459.298 50.566 457.62 44.2767C457.453 43.3543 457.285 42.5996 457.285 41.6771C457.285 32.956 466.845 28.1761 474.476 28.1761C475.231 28.1761 475.985 28.26 476.74 28.3438C476.656 26.4989 476.237 22.3061 473.553 21.8029C472.883 25.9958 470.031 27.8407 466.342 27.8407C462.568 27.8407 459.549 25.2411 459.549 21.7191C459.549 15.0105 468.941 12.6625 474.392 12.6625C486.467 12.6625 488.145 19.8742 488.899 29.8532C489.319 33.8784 488.564 40 492.086 41.9287C493.428 42.6834 494.602 42.1803 495.189 42.5996C495.776 42.935 496.027 45.4507 496.027 47.1279C496.111 48.3857 496.111 49.3082 496.111 50.1467C496.111 51.6562 496.027 52.327 495.356 52.4947C493.428 53.0817 492.421 53.3333 490.66 53.3333ZM469.277 41.0063C469.277 42.935 470.535 43.7736 472.128 43.7736C473.637 43.7736 475.818 43.0189 477.579 41.5094C477.495 40.5031 477.243 37.8197 477.243 35.891C474.56 35.891 469.277 37.4843 469.277 41.0063ZM507.861 52.1593C504.842 52.0755 502.746 52.4109 500.314 52.4109C499.308 52.4109 498.301 52.327 497.044 52.2432C496.121 52.1593 495.283 51.8239 494.779 51.0692C494.612 50.7337 494.36 50.1467 494.276 49.4759C494.109 48.805 494.109 47.9664 494.109 47.2117C494.109 45.5346 494.276 43.9413 494.444 43.1027C495.366 39.9161 497.631 41.6771 499.308 40.3354C499.979 39.9161 500.733 38.6583 500.901 37.2327V27.1698C500.901 25.3249 499.475 23.2285 497.463 23.2285C496.876 23.2285 496.289 23.3962 495.702 23.3962C495.031 23.3962 494.444 23.1446 494.025 22.4738C493.857 22.1384 493.773 21.6352 493.773 21.1321C493.773 19.4549 494.444 17.3585 494.779 16.4361C495.283 14.7589 495.283 13.4172 496.96 12.7463C497.965 12.4109 499.14 12.2432 500.398 12.2432C502.41 12.2432 504.591 12.4948 506.1 12.4948C507.023 12.4948 507.777 12.4109 508.448 12.4109C509.622 12.4109 510.628 12.5786 511.383 13.2495C512.389 14.0042 512.557 15.7652 512.557 17.0231C515.828 14.7589 519.098 12.914 522.704 12.914C526.561 12.914 529.496 15.0943 531.593 18.1971C535.533 15.2621 539.475 12.7463 543.92 12.7463C552.725 12.7463 555.828 20.9644 556.331 28.6792V38.0713C556.582 39.1614 557.169 39.9161 557.672 40.3354C559.35 41.6771 561.698 39.9161 562.536 43.1027C562.704 43.8574 562.956 45.3669 562.956 46.9602C562.956 47.8826 562.872 48.7212 562.704 49.4759C562.704 50.1467 562.452 50.7337 562.201 51.0692C561.698 51.8239 560.859 52.1593 560.02 52.2432C558.763 52.327 557.756 52.327 556.75 52.327H553.312C551.299 52.2432 549.622 52.1593 547.693 52.1593C546.268 52.1593 544.758 52.2432 542.914 52.2432C542.159 52.2432 541.404 51.8239 540.901 51.0692C540.733 50.6499 540.566 50.1467 540.566 49.392C540.398 48.7212 540.398 47.8826 540.398 46.9602C540.398 45.283 540.566 43.6059 540.649 42.8511C540.901 41.6771 541.32 41.174 541.823 40.8386C542.914 40.1677 543.668 40.2516 544.255 37.9874C544.255 35.3878 544.423 34.13 544.507 32.2851C544.507 29.3501 544.675 23.4801 542.578 22.8092C542.243 22.8092 541.907 22.7254 541.572 22.7254C539.056 22.7254 536.624 24.8218 534.36 25.8281C534.444 27.5891 534.528 30.4402 534.528 32.8721C534.528 34.717 534.444 36.3103 534.444 37.4004C534.528 38.7421 534.863 39.5807 535.199 40C535.87 40.8386 536.792 40.8386 537.463 41.2579C537.882 41.5933 538.218 42.0964 538.553 43.2704C538.636 44.109 538.888 45.87 538.888 47.5472C538.888 48.3019 538.805 48.9727 538.721 49.6436C538.553 50.3145 538.469 50.9015 538.218 51.2369C537.798 51.9916 537.127 52.327 536.289 52.327C535.199 52.4947 534.36 52.5786 533.689 52.5786C532.18 52.5786 531.173 52.327 529.161 52.327C527.232 52.327 526.142 52.5786 524.716 52.5786C524.046 52.5786 523.123 52.4947 522.117 52.327C521.362 52.327 520.607 51.9916 520.104 51.2369C519.937 50.9015 519.769 50.3145 519.769 49.6436C519.601 48.8889 519.601 48.0503 519.601 47.2956C519.601 45.6184 519.769 44.0252 519.853 43.2704C520.104 42.2641 520.44 41.8449 520.775 41.5094C521.446 40.8386 522.452 40.9224 523.123 40.1677C523.543 39.5807 523.878 38.9098 523.962 37.4004C523.878 35.2201 524.046 33.2075 524.046 31.4465C524.046 28.3438 523.626 23.1447 519.517 23.1447C517.169 23.1447 514.821 24.8218 512.641 25.8281C512.641 27.1698 512.557 28.5954 512.557 30.1048C512.557 32.2013 512.641 34.2977 512.725 36.3103C512.725 37.9036 512.557 39.9161 513.647 40.4193C514.905 40.9224 516.079 40.9224 516.666 41.9287C517.002 42.4319 517.421 42.935 517.589 43.6897C518.092 45.1153 518.176 46.7924 518.176 48.3019C518.176 48.8889 518.092 49.4759 518.008 49.8952C517.756 50.8176 517.421 51.4885 516.75 51.9077C516.247 52.327 514.821 52.327 513.312 52.327C511.048 52.327 508.448 52.1593 507.861 52.1593Z" fill="white"/>
<path d="M22.7558 375.43C19.7369 375.682 14.7055 375.682 11.1834 374.675C9.17087 374.172 7.40986 373.166 6.65515 371.908C4.89414 369.644 4.64257 366.625 4.64257 363.355C4.64257 359.078 5.39729 354.046 5.90043 351.028C6.90672 341.216 9.17087 341.468 18.2275 341.468C18.479 341.468 19.7369 341.468 21.7495 341.216C23.5105 341.216 25.0199 339.707 25.0199 337.946V332.663C25.0199 330.902 25.0199 329.141 25.0199 327.631V320.839V289.896C25.0199 279.329 25.0199 268.512 25.5231 258.197C25.5231 256.185 24.2652 254.424 22.0011 254.424H15.4602C10.1772 254.675 5.14571 255.43 3.63628 249.644C2.62999 246.374 2.37842 242.348 2.37842 238.323C2.37842 234.046 2.62999 225.745 5.14571 222.223C6.152 220.965 7.66144 220.21 9.67401 219.707C11.9382 219.204 14.2023 219.204 16.718 219.204C37.0954 219.204 39.108 218.952 39.3595 218.952C52.1897 219.455 65.2715 219.707 78.1017 219.707C84.8941 219.707 90.4287 219.455 101.246 219.204H108.542C116.341 219.204 122.63 219.455 125.9 220.21C135.963 222.223 136.97 228.763 136.97 238.323V246.374C136.97 261.468 137.724 261.971 137.724 263.984C137.724 271.028 136.718 277.568 129.926 280.587C124.391 282.348 117.599 282.348 111.561 283.103C107.536 283.606 104.265 282.6 102.001 280.084C100.995 279.078 100.24 277.82 99.7369 276.562C99.2337 274.55 98.9822 273.543 98.9822 271.782C98.7306 270.021 98.7306 268.763 98.7306 268.009C98.7306 266.751 98.479 265.745 98.2275 264.738C96.2149 258.701 90.4287 254.424 83.3847 254.424H71.3092H68.2904C67.2841 254.424 66.5294 254.675 65.7746 254.927C64.2652 255.179 63.2589 257.191 63.2589 258.701C63.0073 260.965 63.0073 262.977 62.5042 264.738C62.7558 266.248 62.7558 267.506 62.7558 268.763C63.0073 270.524 63.0073 272.537 63.2589 274.55C63.2589 276.059 64.0136 277.568 65.2715 278.575C66.2778 279.581 68.0388 280.084 69.5482 279.833C72.0639 279.581 74.3281 279.581 76.3407 279.581H80.6174H83.3847C84.391 279.581 85.1457 279.833 85.6488 280.587C86.4036 281.342 86.6551 282.097 86.6551 282.852V311.279C86.6551 313.04 85.3973 314.55 83.3847 314.55L71.0576 314.801H70.3029C69.0451 314.801 67.2841 315.304 66.2778 316.311C65.2715 317.568 64.2652 319.078 64.2652 320.839C64.2652 325.367 64.2652 330.65 64.0136 336.185V338.952C64.2652 339.958 65.0199 340.965 66.2778 340.965L72.0639 341.216C73.5734 341.216 76.3407 341.216 79.108 341.468C82.1268 341.971 85.3973 342.726 86.4036 344.738C86.9067 345.996 87.1583 349.267 87.1583 353.04C87.1583 358.072 86.6551 364.109 86.6551 364.613C86.152 371.657 82.3784 374.927 75.3344 374.927C72.8187 374.927 70.3029 374.424 68.2904 374.424C66.2778 374.172 31.8124 374.927 22.7558 375.43Z" fill="white"/>
<path d="M103.51 399.329C101.498 399.497 98.1433 399.497 95.7953 398.826C94.4536 398.491 93.2796 397.82 92.7764 396.981C91.6024 395.472 91.4347 393.459 91.4347 391.279C91.4347 388.428 91.9379 385.074 92.2733 383.061C92.9442 376.52 94.4536 376.688 100.491 376.688C100.659 376.688 101.498 376.688 102.839 376.52C104.013 376.52 105.02 375.514 105.02 374.34V370.818C105.02 369.644 105.02 368.47 105.02 367.464V362.935V342.306C105.02 335.262 105.02 328.051 105.355 321.174C105.355 319.833 104.516 318.659 103.007 318.659H98.6465C95.1245 318.826 91.7702 319.329 90.7639 315.472C90.093 313.292 89.9253 310.608 89.9253 307.925C89.9253 305.074 90.093 299.539 91.7702 297.191C92.441 296.352 93.4473 295.849 94.789 295.514C96.2985 295.178 97.8079 295.178 99.485 295.178C113.07 295.178 114.412 295.011 114.579 295.011C123.133 295.346 131.854 295.514 140.407 295.514C144.936 295.514 148.625 295.346 155.837 295.178H160.701C165.9 295.178 170.093 295.346 172.273 295.849C178.982 297.191 179.653 301.552 179.653 307.925V313.292C179.653 323.355 180.156 323.69 180.156 325.032C180.156 329.728 179.485 334.088 174.957 336.101C171.267 337.275 166.739 337.275 162.714 337.778C160.03 338.113 157.85 337.443 156.34 335.765C155.67 335.095 155.166 334.088 154.663 333.25C154.495 332.076 154.328 331.405 154.328 330.231C154.16 328.889 153.992 327.212 153.992 325.87C152.651 321.51 148.625 318.659 143.929 318.659H134.034L132.189 318.994C131.183 319.162 130.512 320.503 130.512 321.51C130.345 322.684 130.345 324.025 130.177 325.032V328.218C130.345 329.392 130.345 330.734 130.512 332.076C130.512 333.082 131.015 334.088 131.854 334.759C132.525 335.43 133.699 335.765 134.705 335.598C136.382 335.43 137.892 335.43 139.233 335.43H142.085H143.929C144.6 335.43 145.103 335.598 145.439 336.101C145.942 336.604 146.11 337.107 146.11 337.61C146.277 339.958 146.445 343.48 146.445 347.338C146.445 350.86 146.445 353.376 146.11 356.562C145.942 357.736 145.271 358.742 143.929 358.742L135.711 358.91H135.208C134.37 358.91 133.196 359.246 132.525 359.916C131.854 360.755 131.183 361.761 131.183 362.935C131.183 366.29 131.015 370.147 131.015 374.34C131.015 375.682 131.854 376.688 133.196 376.856H144.433C149.296 376.856 153.825 373.669 154.663 366.793C154.999 364.277 155.334 362.264 156.508 360.755C157.179 359.749 158.018 359.078 159.359 358.575C163.217 357.401 167.745 357.401 171.602 356.898C174.454 356.562 176.802 357.233 178.143 358.91C179.317 359.916 179.988 361.594 180.156 363.438C180.156 364.445 180.324 365.619 180.324 366.625C180.324 368.973 179.653 374.843 179.653 381.887V387.086C179.653 393.627 178.982 398.155 172.273 399.497C170.261 399.833 166.236 400 161.372 400C150.973 400 137.221 399.329 132.693 398.994C131.183 398.826 127.661 398.826 123.468 398.826C116.927 398.826 108.542 398.994 103.51 399.329Z" fill="white"/>
<path d="M342.337 382.893C331.938 382.893 323.217 384.067 321.037 383.9L318.018 383.396C316.676 382.893 315.67 382.39 315.167 381.551C314.328 380.545 313.993 379.203 313.825 377.862C313.825 374.172 313.993 364.612 316.509 362.097C317.85 361.09 321.037 361.258 322.882 361.258C323.049 361.258 324.559 361.258 327.41 361.09C329.087 361.09 330.429 359.749 330.597 358.071C331.435 347.338 333.112 334.424 333.112 324.193C333.112 321.174 333.28 317.484 333.28 313.627C333.28 309.937 333.112 306.248 332.441 302.893C332.274 302.222 331.603 301.719 330.932 301.719H323.217C322.379 301.719 321.54 302.39 321.54 303.061C321.372 308.26 321.205 312.453 321.037 313.459C320.534 317.149 320.031 320.168 316.173 321.51C312.483 322.851 307.787 322.851 303.93 323.187C299.234 323.858 295.88 321.174 295.544 316.646C295.376 315.807 295.376 314.633 295.376 313.292C295.376 307.757 295.88 298.365 296.047 289.141C296.047 279.581 300.408 276.897 309.632 276.897C315.502 276.897 324.559 277.736 343.343 278.071L386.781 278.239C388.626 278.742 389.968 278.91 390.974 279.916C391.645 280.419 391.98 281.258 392.316 282.264C392.483 282.935 392.651 284.78 392.651 287.296C392.651 295.682 391.98 311.447 391.645 313.459C391.142 317.149 390.806 320.168 386.949 321.51C383.091 322.851 378.563 322.851 374.706 323.187C370.01 323.858 366.655 321.174 366.152 316.646V312.788C366.152 310.105 366.152 306.415 366.32 302.893C366.32 302.055 365.817 301.216 364.978 301.216L359.779 300.713C358.773 300.713 358.102 301.384 358.102 302.222C357.096 314.801 355.251 328.218 355.251 340.965C355.251 346.835 355.586 352.705 356.76 358.071C357.096 359.916 358.773 361.258 360.618 361.426C363.804 361.426 368.332 361.426 369.003 361.593C371.519 361.929 372.861 362.264 373.532 363.271C374.202 364.109 374.202 365.786 374.202 368.302C374.202 370.147 374.37 372.327 374.37 374.843C374.37 379.539 373.028 383.061 368.165 383.732C367.494 383.9 367.326 383.9 366.823 383.9C366.152 383.9 365.146 383.564 362.462 383.564C359.276 383.229 351.058 382.893 342.337 382.893Z" fill="white"/>
<path d="M515.082 372.83C511.896 376.855 508.038 380.21 502.671 380.21C497.472 380.21 493.111 376.017 490.596 371.656C486.906 365.954 465.103 309.937 464.265 307.757C463.258 305.409 461.917 302.893 460.575 300.042C456.717 295.178 455.208 295.681 449.841 295.346C448.499 295.178 447.325 294.34 446.822 293.333C445.816 291.992 445.48 289.979 445.48 287.799C445.48 285.115 446.151 275.556 448.332 274.046C449.673 273.04 451.518 273.207 454.705 273.207C456.382 273.04 463.761 272.872 471.979 272.872C477.514 272.872 483.552 273.04 488.583 273.543C491.099 273.711 493.111 274.381 494.956 276.897C495.795 277.904 495.963 279.413 495.963 281.09C495.963 282.432 495.795 283.774 495.627 284.948C495.459 287.128 495.124 288.805 494.789 290.818C494.789 291.992 494.285 293.333 493.615 294.507C492.776 295.514 491.602 295.849 490.428 295.849C489.757 295.849 488.919 295.849 488.248 295.681C487.241 295.849 486.738 296.688 486.738 297.694C486.738 298.197 486.906 298.7 487.074 299.203C487.912 303.564 498.311 331.069 502.168 337.778C502.336 338.113 502.839 338.449 503.174 338.281C503.51 338.281 504.013 338.113 504.181 337.778C507.2 331.405 511.057 315.304 517.598 299.371C518.101 298.197 518.436 297.191 518.101 296.352C517.598 295.681 515.585 295.849 514.747 295.346C511.225 294.843 510.218 292.495 509.883 289.308C509.548 285.954 510.218 282.096 510.722 279.581C510.889 276.562 511.56 275.052 512.399 274.214C513.573 273.04 515.585 273.207 518.94 273.207C519.778 273.207 527.493 272.872 535.711 272.872C541.413 272.872 547.283 273.04 552.986 273.543C555.166 273.711 557.011 274.214 557.682 275.555C558.017 276.394 557.849 277.233 558.017 278.742V280.252C558.017 281.761 558.185 283.774 558.185 285.786C558.185 286.96 558.185 287.966 558.017 288.973C557.514 295.178 554.16 295.514 548.961 296.184C546.78 296.352 544.935 299.371 543.426 301.048C542.42 302.893 541.581 304.57 540.743 306.583C538.898 310.608 537.724 314.633 536.382 318.658C533.195 328.05 529.338 337.778 525.984 347.17C518.94 366.96 517.262 369.979 515.082 372.83Z" fill="white"/>
<path d="M684.978 347.673H682.127C680.45 347.673 678.605 347.673 677.095 347.17C675.754 346.835 674.747 346.164 674.077 345.325C673.07 343.816 672.735 341.803 672.735 339.623C672.735 336.772 673.406 333.585 673.741 331.572C674.747 323.69 677.431 325.702 683.469 324.864C684.139 324.696 684.643 324.361 684.643 323.522C684.643 320.839 684.475 317.988 684.643 315.136V310.776C684.643 305.577 684.475 300.378 684.475 295.178V289.979C684.643 282.6 684.475 275.22 684.978 267.841C685.146 267.338 684.81 267.002 684.643 266.667C684.475 266.499 683.972 266.331 683.636 266.331C681.456 266.499 679.108 266.331 677.095 265.828C673.406 264.487 672.735 261.971 672.735 258.281C672.735 255.262 673.406 252.243 673.741 250.063C674.412 243.69 675.754 243.858 681.288 243.69C683.972 243.69 689.171 243.187 698.731 243.187C705.104 243.187 712.819 243.019 719.36 244.025C721.54 244.361 723.385 245.032 724.223 246.206C724.726 246.709 724.894 249.057 724.894 251.572C724.894 255.095 724.726 259.12 724.559 259.287C724.223 261.635 723.552 263.648 722.043 264.99C720.701 265.996 718.689 266.331 716.844 266.331C715.334 266.331 713.657 265.996 712.483 265.828H711.477C711.142 265.828 710.806 265.996 710.638 266.331C710.303 266.499 710.135 266.835 710.135 267.17C709.968 272.872 709.8 269.183 709.8 275.891C710.303 284.948 711.477 294.004 711.142 303.061C710.806 309.937 710.638 316.814 710.638 323.69C710.638 324.361 711.142 324.864 711.812 325.032C716.173 325.032 721.372 325.367 725.9 325.032C727.41 324.864 729.087 324.696 730.261 324.193C734.454 322.18 733.448 318.323 733.783 314.801C734.118 312.621 734.286 310.608 735.46 308.931C736.131 308.092 736.97 307.086 738.647 306.583C742.337 305.409 746.865 305.409 750.89 304.738C753.238 304.57 755.251 305.074 756.76 306.248C758.269 307.422 759.108 309.266 759.276 311.447L759.947 327.883C760.114 329.895 760.45 333.417 760.45 336.939C760.45 338.281 760.282 339.791 760.282 341.132C759.443 346.667 757.599 347.505 753.741 347.505C752.232 347.505 750.219 347.338 748.039 347.338H720.03C704.433 347.338 688.668 347.338 684.978 347.673Z" fill="white"/>
<path d="M211.77 392.117C208.752 392.369 205.984 392.621 202.965 392.621C192.651 392.621 184.601 392.369 184.601 380.545C184.601 372.998 184.852 359.916 185.355 350.357C185.607 343.816 185.355 337.778 185.859 334.004C186.11 332.495 186.865 330.734 187.368 329.728C188.877 327.715 189.381 326.709 191.645 325.954C194.412 324.696 197.934 324.445 202.965 324.445C205.984 324.445 208.248 324.696 210.009 324.948C213.028 325.702 214.538 326.206 215.293 326.96C216.802 328.218 216.55 329.728 216.802 332.243C217.054 337.023 217.305 342.809 218.563 346.331C219.821 349.602 221.33 351.866 223.091 353.879C226.865 357.149 232.903 358.658 238.94 358.658C245.984 358.658 253.28 356.646 257.054 353.375C260.576 351.614 264.349 347.841 264.349 343.312C264.349 337.778 256.55 332.243 253.028 329.728C244.223 324.696 217.054 316.646 208.752 313.627C194.664 308.595 184.349 290.482 184.349 274.13C184.349 245.702 206.991 227.841 232.399 227.841C240.198 227.841 255.041 230.105 262.337 235.136C262.588 235.64 263.343 235.388 263.343 235.136C263.846 235.136 264.098 234.633 264.098 234.13V233.879C264.349 231.111 265.355 229.853 266.613 229.099C267.871 228.344 272.148 228.092 276.425 228.092C279.695 228.092 283.217 228.344 284.475 228.344C286.739 228.596 289.003 228.847 290.513 230.105C291.519 231.111 291.519 232.369 291.77 235.388C291.77 235.64 292.022 261.3 292.525 274.633C292.525 277.401 290.261 279.916 287.494 280.168L263.846 281.426C261.582 281.426 259.318 279.916 258.563 277.652C257.305 274.382 255.796 270.86 253.28 268.596C250.009 265.325 244.223 262.055 237.179 262.558C236.928 262.558 235.67 262.809 235.67 262.558C230.387 263.816 222.085 267.338 223.091 275.64C223.846 285.451 245.984 292.495 253.28 294.507C278.94 302.809 299.821 316.646 299.821 342.809C299.821 371.489 270.135 390.86 243.72 391.614C236.173 391.614 229.129 390.105 222.085 387.589C221.33 387.086 220.576 387.338 220.072 388.092C218.06 390.86 215.041 392.117 211.77 392.117Z" fill="white"/>
<path d="M425.691 386.583C416.886 386.583 403.05 386.834 397.012 386.834C390.219 386.834 387.704 385.325 386.949 383.061C386.697 382.306 386.697 373.753 386.697 372.495C386.697 370.985 386.446 369.224 386.697 367.715C386.697 364.948 386.949 361.677 387.955 358.91C390.723 354.382 392.987 353.375 398.27 353.375C400.031 353.375 401.54 353.627 403.301 353.878C404.559 353.878 405.817 352.621 405.817 351.363C405.817 347.338 405.565 343.312 405.817 339.287V332.746C405.565 324.948 405.314 317.149 405.314 309.35C405.314 306.834 405.314 304.319 405.565 301.551L406.32 267.841C406.32 266.583 405.314 265.577 404.056 265.577L398.27 266.08C390.974 266.08 387.452 262.809 386.949 255.514C386.446 254.256 386.446 252.495 386.446 250.985C386.446 247.967 386.697 244.948 386.949 242.432V240.168C386.697 239.413 386.446 238.658 386.446 237.904C386.446 232.369 397.263 232.118 401.289 232.118C402.546 232.118 413.364 231.614 425.44 231.363C440.031 231.363 454.622 232.118 451.603 232.118C459.653 232.118 461.917 232.117 463.175 241.677C463.427 244.696 464.433 249.476 464.433 254.004C464.433 257.275 463.679 260.294 462.421 262.306C459.905 265.577 454.37 266.331 450.345 266.331C448.584 266.331 447.326 266.08 446.32 266.08H446.068C445.314 266.08 445.062 266.08 444.559 266.331C444.307 266.834 444.056 267.338 444.056 267.841L443.301 276.646V280.419C444.307 294.004 446.068 307.589 445.314 321.174L444.559 350.86C444.559 351.866 444.811 352.369 445.314 352.872C445.817 353.124 446.32 353.375 447.075 353.375C450.345 353.124 454.37 353.124 457.641 354.13C459.653 354.885 461.414 355.891 462.421 356.897C463.679 358.91 464.433 361.929 464.433 365.451C464.433 369.728 463.427 374.507 463.175 377.778C462.421 382.809 461.666 385.073 459.653 386.331C457.892 387.338 455.125 387.338 450.597 387.338C449.339 387.338 438.27 386.583 425.691 386.583Z" fill="white"/>
<path d="M587.872 389.35C585.356 389.35 582.337 389.099 579.821 388.595C571.771 387.338 563.972 386.08 555.922 386.08C554.161 386.08 552.148 386.08 550.387 386.331C545.859 386.583 541.079 388.092 536.048 388.092C525.482 388.092 521.457 379.539 521.457 369.728C521.457 364.948 522.463 359.916 524.727 356.897C526.488 354.13 527.997 352.872 536.048 352.872C538.06 352.872 540.073 352.872 542.337 353.124C553.155 339.287 556.928 317.904 564.224 302.558C569.507 291.489 573.532 279.413 578.815 268.344C579.318 267.589 579.067 267.086 578.815 266.583C578.312 266.08 577.809 265.828 577.306 265.828C567.997 265.828 561.96 265.577 561.96 255.011C561.96 251.992 562.211 248.721 562.211 246.457C562.211 242.432 562.211 236.143 565.23 233.375C566.991 231.866 574.538 231.363 582.337 231.363C589.884 231.363 597.683 231.866 599.444 232.118H617.809C620.324 232.118 622.589 232.369 624.601 233.879C625.607 234.382 628.375 237.652 628.626 238.155C636.677 257.275 641.96 278.155 650.513 297.023C658.06 314.382 663.595 336.017 673.406 352.872C673.909 353.878 674.916 354.13 675.67 354.13C678.941 353.878 682.211 353.627 684.979 353.627C687.243 353.627 689.255 353.878 691.016 354.633C693.784 355.639 695.545 357.652 696.048 361.677C696.551 364.445 697.054 367.967 697.054 371.237C697.054 375.765 696.048 380.042 693.784 383.061C690.765 386.331 686.991 387.338 681.708 387.338C676.928 387.338 671.142 386.834 663.343 386.08H659.318C653.784 386.583 647.997 387.338 642.714 387.589C639.696 387.589 635.67 388.344 631.645 388.344C626.614 388.344 621.834 387.338 619.821 383.312C618.06 379.79 617.809 373.753 617.557 369.979C617.557 366.206 618.06 361.929 619.57 358.91C621.582 355.639 625.607 353.878 631.142 353.878C632.4 353.878 634.412 352.872 633.406 350.356C632.903 348.344 632.651 345.828 629.884 345.828C616.048 345.828 601.457 345.073 587.872 344.067C587.117 344.067 586.614 344.57 586.362 345.073C585.356 347.086 584.853 348.847 584.098 350.86C584.098 351.111 583.846 351.363 583.846 351.614C583.846 352.621 584.853 353.627 585.859 353.627H591.394C594.413 353.627 596.928 354.382 597.935 357.652C599.192 360.419 599.444 363.941 599.444 366.206C599.444 374.507 599.444 380.545 597.18 384.822C595.167 388.344 591.645 389.35 587.872 389.35ZM598.438 310.105C598.438 311.111 599.696 311.614 600.199 311.614C600.953 311.614 602.463 311.866 607.494 312.369C610.01 312.621 612.526 312.621 614.79 312.621C615.796 312.621 617.054 311.363 616.551 310.356C616.048 308.595 615.041 307.086 614.287 305.577L609.004 292.746C608.752 291.992 608.249 291.489 607.494 291.489C606.74 291.489 606.236 291.992 605.985 292.495L598.689 309.35C598.438 309.602 598.438 309.853 598.438 310.105Z" fill="white"/>
<path d="M234.161 219.874C232.148 220.126 229.632 220.377 227.368 220.377C224.601 220.377 221.582 219.874 219.569 218.365C217.557 216.352 216.55 213.333 216.047 210.063C216.047 209.56 215.796 206.289 215.796 202.516C215.796 197.232 216.047 193.711 216.299 191.446C216.55 189.182 218.563 186.918 223.595 186.918C226.362 186.918 228.878 186.666 230.639 186.666C232.651 186.666 235.167 185.66 235.418 183.899C235.922 180.126 234.664 160.251 234.664 148.931V139.874C234.664 138.365 233.657 137.861 232.903 139.371C224.601 153.207 215.544 165.534 207.745 179.119C204.727 184.151 202.462 187.673 199.947 187.673C197.683 187.673 195.418 185.157 192.148 179.119C188.374 172.075 178.06 153.962 167.242 138.868C166.236 137.861 165.23 138.113 165.23 139.622C165.481 141.887 165.481 144.402 165.481 146.918C165.481 148.931 165.481 151.195 165.23 153.459C164.727 163.522 164.727 173.836 164.475 183.899C164.978 186.163 167.242 186.666 169.255 186.666C171.016 186.666 173.532 186.666 176.299 186.918C179.569 187.17 182.588 188.176 183.595 190.188C184.349 191.195 184.349 203.27 184.349 205.283C184.349 209.811 183.846 215.094 180.324 218.365C178.312 219.874 175.293 220.377 172.525 220.377C170.261 220.377 167.745 220.126 165.984 219.874C163.217 219.622 157.934 219.622 151.645 219.622C142.588 219.622 132.022 219.874 124.727 220.377H120.45C117.934 220.377 115.167 220.377 112.903 219.622C110.89 219.119 109.381 218.113 108.374 216.855C106.865 214.591 106.362 211.572 106.362 208.302C106.362 204.025 107.368 199.245 107.871 196.226C108.626 187.673 110.387 186.163 116.173 186.163C117.431 186.163 118.689 186.415 120.198 186.415H120.953C123.72 186.415 125.481 185.66 125.733 182.893C125.733 179.119 125.481 175.346 125.733 171.572V165.031C125.733 157.233 125.23 149.434 125.23 141.635C125.23 128.05 125.481 113.962 125.984 100.377C126.236 99.874 125.984 99.3709 125.733 98.8677C125.23 98.6162 124.727 98.3646 123.972 98.3646C121.205 98.6162 117.934 98.3646 114.915 97.6099C109.381 95.5973 108.374 91.8237 108.374 86.2891C108.374 81.7608 109.381 77.2325 109.884 73.9621C110.135 69.4338 110.89 66.9181 112.651 65.6602C114.412 64.4023 117.431 64.4023 122.211 64.4023C123.972 64.4023 155.167 63.1445 157.179 63.3961C159.192 63.8992 161.205 64.6539 162.462 66.4149C163.72 67.9244 164.727 69.4338 165.733 71.1948C176.299 84.7797 196.425 138.868 199.947 138.868C202.714 138.868 231.896 73.9621 234.412 71.1948C238.689 64.1508 240.198 63.3961 246.739 63.3961C250.261 63.3961 284.223 63.8992 287.242 65.4086C289.003 66.6665 289.758 69.1822 290.261 73.9621C290.764 76.981 291.519 81.5093 291.519 86.0376C291.519 89.308 291.016 92.5784 289.506 94.591C288.752 95.8489 286.991 96.8552 284.978 97.6099C282.211 98.3646 278.689 98.6162 275.922 98.3646C275.167 98.3646 274.915 98.6162 274.412 98.8677C273.909 99.3709 273.909 99.874 273.909 100.377C274.412 111.698 274.161 122.767 274.412 133.836V140.377C274.412 147.924 273.909 155.975 273.909 163.773C273.909 166.792 274.412 177.61 274.161 182.893C274.161 185.157 274.915 185.912 276.928 186.163C286.488 187.17 290.764 183.144 292.274 196.226C292.777 199.245 293.532 203.773 293.532 208.302C293.532 213.585 292.525 218.113 286.991 219.622C284.727 220.377 281.959 220.377 279.695 220.377H275.418C268.123 219.874 257.305 219.622 248.5 219.622C242.211 219.622 236.676 219.622 234.161 219.874Z" fill="white"/>
<path d="M337.305 215.011C335.795 215.178 334.118 215.178 332.609 215.178C298.563 215.178 290.177 197.904 290.177 167.715C290.177 158.491 290.68 151.111 290.68 137.191L290.512 134.34C290.177 133.334 289.171 133.166 288.164 133.166H285.816C283.636 133.166 280.45 132.663 279.108 130.65C278.102 129.308 277.766 127.296 277.766 125.116C277.766 122.264 278.437 119.078 278.772 116.898C278.772 116.562 278.772 112.872 280.617 111.531C282.462 110.021 285.146 109.854 285.816 109.854C289.338 109.854 302.252 110.189 303.762 110.189C309.464 110.189 320.198 110.86 321.037 110.86C323.049 111.028 325.062 111.363 325.733 112.705C326.068 113.543 326.068 114.214 326.068 116.059C326.236 118.407 326.403 120.42 326.403 122.097C326.403 128.47 325.397 133.166 318.353 133.166C317.682 133.166 317.011 133.166 316.173 132.998C314.16 133.166 313.825 133.837 313.657 135.849C313.657 146.751 313.657 157.652 314.328 168.554C314.496 174.591 315.502 181.635 319.024 186.164C321.707 190.021 325.9 192.705 332.609 192.705C339.653 192.705 349.213 190.357 349.884 177.946C350.219 173.585 350.219 169.392 350.554 165.032L350.387 136.856L350.051 134.172C349.883 133.501 349.38 132.998 348.709 132.998C346.529 132.998 342.504 132.998 341.665 132.663C337.976 131.321 337.137 129.141 337.137 125.116C337.137 122.097 337.808 119.078 337.976 116.898C338.814 110.86 339.988 110.524 345.187 110.524C342.839 110.524 353.238 110.189 363.301 110.189C368.668 110.189 379.569 110.86 380.408 110.86C384.6 111.195 385.439 112.202 385.439 116.059C385.607 118.742 385.607 121.09 385.607 122.935C385.607 124.277 385.607 125.283 385.439 126.29C385.104 130.986 382.588 133.166 377.892 133.166C375.544 133.166 372.693 133.166 372.693 135.178C373.196 148.596 373.364 157.988 373.364 164.864C373.364 170.902 373.196 175.095 373.028 178.784C372.022 204.277 354.076 214.34 337.305 215.011Z" fill="white"/>
<path d="M526.152 213.334C520.282 213.334 511.057 213.501 507.032 213.501C502.504 213.501 500.827 212.495 500.324 210.986C500.156 210.482 500.156 204.78 500.156 203.942C500.156 202.935 499.988 201.761 500.156 200.755C500.156 198.91 500.324 196.73 500.995 194.885C502.839 191.866 504.349 191.195 507.871 191.195C509.045 191.195 510.051 191.363 511.225 191.531C512.064 191.531 512.902 190.692 512.902 189.853C512.902 187.17 512.735 184.487 512.902 181.803V177.443C512.735 172.243 512.567 167.044 512.567 161.845C512.567 160.168 512.567 158.491 512.735 156.646L513.238 134.172C513.238 133.334 512.567 132.663 511.728 132.663L507.871 132.998C503.007 132.998 500.659 130.818 500.324 125.954C499.988 125.116 499.988 123.942 499.988 122.935C499.988 120.923 500.156 118.91 500.324 117.233V115.724C500.156 115.22 499.988 114.717 499.988 114.214C499.988 110.524 507.2 110.357 509.883 110.357C510.722 110.357 517.934 110.021 525.984 109.854C535.712 109.854 545.439 110.357 543.426 110.357C548.793 110.357 550.303 110.357 551.141 116.73C551.309 118.742 551.98 121.929 551.98 124.948C551.98 127.128 551.477 129.141 550.638 130.482C548.961 132.663 545.271 133.166 542.588 133.166C541.414 133.166 540.575 132.998 539.904 132.998H539.737C539.234 132.998 539.066 132.998 538.73 133.166C538.563 133.501 538.395 133.837 538.395 134.172L537.892 140.042V142.558C538.563 151.615 539.737 160.671 539.234 169.728L538.73 189.518C538.73 190.189 538.898 190.524 539.234 190.86C539.569 191.027 539.904 191.195 540.408 191.195C542.588 191.027 545.271 191.027 547.452 191.698C548.793 192.201 549.967 192.872 550.638 193.543C551.477 194.885 551.98 196.898 551.98 199.246C551.98 202.097 551.309 205.283 551.141 207.464C550.638 210.818 550.135 212.327 548.793 213.166C547.619 213.837 545.774 213.837 542.756 213.837C541.917 213.837 534.538 213.334 526.152 213.334Z" fill="white"/>
<path d="M413.028 224.403C410.009 224.654 407.242 224.906 404.223 224.906C393.909 224.906 385.859 224.654 385.859 212.83C385.859 205.283 386.11 192.201 386.613 182.642C386.865 176.101 386.613 170.063 387.116 166.289C387.368 164.78 388.123 163.019 388.626 162.013C390.135 160 390.638 158.994 392.903 158.239C395.67 156.981 399.192 156.73 404.223 156.73C407.242 156.73 409.506 156.981 411.267 157.233C414.286 157.988 415.796 158.491 416.55 159.245C418.06 160.503 417.808 162.013 418.06 164.528C418.311 169.308 418.563 175.094 419.821 178.617C421.079 181.887 422.588 184.151 424.349 186.164C428.123 189.434 434.16 190.944 440.198 190.944C447.242 190.944 454.538 188.931 458.311 185.661C461.833 183.9 465.607 180.126 465.607 175.598C465.607 170.063 457.808 164.528 454.286 162.013C445.481 156.981 418.311 148.931 410.009 145.912C395.921 140.881 385.607 122.767 385.607 106.415C385.607 77.9876 408.248 60.126 433.657 60.126C441.456 60.126 456.299 62.3901 463.594 67.4216C463.846 67.9247 464.601 67.6731 464.601 67.4216C465.104 67.4216 465.355 66.9184 465.355 66.4153V66.1637C465.607 63.3964 466.613 62.1386 467.871 61.3838C469.129 60.6291 473.406 60.3776 477.682 60.3776C480.953 60.3776 484.475 60.6291 485.733 60.6291C487.997 60.8807 490.261 61.1323 491.77 62.3901C492.777 63.3964 492.777 64.6543 493.028 67.6731C493.028 67.9247 493.28 93.5851 493.783 106.918C493.783 109.686 491.519 112.201 488.752 112.453L465.104 113.711C462.84 113.711 460.575 112.201 459.821 109.937C458.563 106.667 457.053 103.145 454.538 100.881C451.267 97.6102 445.481 94.3398 438.437 94.8429C438.186 94.8429 436.928 95.0945 436.928 94.8429C431.645 96.1008 423.343 99.6228 424.349 107.925C425.104 117.736 447.242 124.78 454.538 126.793C480.198 135.095 501.079 148.931 501.079 175.094C501.079 203.774 471.393 223.145 444.978 223.899C437.431 223.899 430.387 222.39 423.343 219.874C422.588 219.371 421.833 219.623 421.33 220.377C419.318 223.145 416.299 224.403 413.028 224.403Z" fill="white"/>
<path d="M677.766 174.088C677.766 207.296 644.307 220.126 616.131 220.126C574.118 220.126 552.483 175.598 552.483 138.617C552.483 95.8492 578.646 61.3838 622.42 61.3838C628.709 61.3838 639.779 61.6354 648.584 63.8995C649.841 60.6291 651.351 58.6165 656.634 58.365C659.401 58.1134 661.917 57.8618 664.684 57.8618C670.722 57.8618 682.797 58.365 684.81 65.1574C684.81 65.9121 685.062 68.931 685.062 73.2077C685.062 86.5411 684.055 112.705 683.804 115.723C683.301 119.245 682.797 122.264 681.036 124.78C680.03 126.038 678.772 127.044 676.508 127.799C670.722 129.811 665.187 129.811 660.659 130.315L658.646 130.566C656.634 130.566 654.621 129.811 652.86 128.805C649.841 126.793 647.829 123.522 646.068 118.491C637.766 97.8618 632.483 96.8555 623.929 96.6039C620.407 96.3524 616.382 97.3587 610.848 100.126C594.496 107.925 589.212 127.044 589.212 143.9C589.212 162.013 600.533 186.164 621.414 186.164C635.25 186.164 638.521 178.365 642.546 167.044C643.301 165.283 643.552 163.019 645.565 162.013C649.59 159.497 653.363 159.749 658.898 159.749L673.238 160.503C674.747 160.503 675.753 161.761 676.257 163.019C677.263 166.793 677.766 170.315 677.766 174.088Z" fill="white"/>
<path d="M137.558 290.314C139.873 290.314 141.75 288.437 141.75 286.122C141.75 283.806 139.873 281.929 137.558 281.929C135.242 281.929 133.365 283.806 133.365 286.122C133.365 288.437 135.242 290.314 137.558 290.314Z" fill="#FFD000"/>
<path d="M147.619 290.314C149.935 290.314 151.812 288.437 151.812 286.122C151.812 283.806 149.935 281.929 147.619 281.929C145.303 281.929 143.426 283.806 143.426 286.122C143.426 288.437 145.303 290.314 147.619 290.314Z" fill="#FFD000"/>
<path d="M157.682 290.314C159.997 290.314 161.875 288.437 161.875 286.122C161.875 283.806 159.997 281.929 157.682 281.929C155.366 281.929 153.489 283.806 153.489 286.122C153.489 288.437 155.366 290.314 157.682 290.314Z" fill="#FFD000"/>
<path d="M524.14 265.996C526.455 265.996 528.333 264.119 528.333 261.803C528.333 259.488 526.455 257.61 524.14 257.61C521.824 257.61 519.947 259.488 519.947 261.803C519.947 264.119 521.824 265.996 524.14 265.996Z" fill="#FFD000"/>
<path d="M534.202 265.996C536.518 265.996 538.395 264.119 538.395 261.803C538.395 259.488 536.518 257.61 534.202 257.61C531.886 257.61 530.009 259.488 530.009 261.803C530.009 264.119 531.886 265.996 534.202 265.996Z" fill="#FFD000"/>
<path d="M544.265 265.996C546.58 265.996 548.458 264.119 548.458 261.803C548.458 259.488 546.58 257.61 544.265 257.61C541.949 257.61 540.072 259.488 540.072 261.803C540.072 264.119 541.949 265.996 544.265 265.996Z" fill="#FFD000"/>
<path d="M490.893 140.056C493.209 140.102 495.122 138.262 495.168 135.946C495.213 133.631 493.373 131.717 491.058 131.672C488.743 131.627 486.829 133.467 486.784 135.782C486.738 138.097 488.578 140.011 490.893 140.056Z" fill="#FFD000"/>
<path d="M499.146 146.928C501.462 146.974 503.375 145.134 503.421 142.818C503.466 140.503 501.626 138.59 499.311 138.544C496.996 138.499 495.082 140.339 495.036 142.654C494.991 144.969 496.831 146.883 499.146 146.928Z" fill="#FFD000"/>
<path d="M503.979 157.062C506.294 157.107 508.208 155.267 508.253 152.952C508.299 150.637 506.458 148.723 504.143 148.678C501.828 148.633 499.914 150.473 499.869 152.788C499.824 155.103 501.664 157.017 503.979 157.062Z" fill="#FFD000"/>
<path d="M506.281 168.011C508.596 168.057 510.51 166.217 510.555 163.901C510.601 161.586 508.761 159.673 506.445 159.627C504.13 159.582 502.217 161.422 502.171 163.737C502.126 166.052 503.966 167.966 506.281 168.011Z" fill="#FFD000"/>
<path d="M506.067 178.91C508.382 178.955 510.296 177.115 510.341 174.8C510.386 172.485 508.546 170.571 506.231 170.526C503.916 170.48 502.002 172.32 501.957 174.635C501.911 176.951 503.752 178.864 506.067 178.91Z" fill="#FFD000"/>
</svg>
