<svg width="25" height="24" viewBox="0 0 25 24" fill="none" xmlns="http://www.w3.org/2000/svg">
<path fill-rule="evenodd" clip-rule="evenodd" d="M17.9845 23.9966C16.254 23.9329 11.3495 23.2551 6.21304 18.1199C1.07781 12.9834 0.4012 8.08014 0.336303 6.34837C0.24016 3.70924 2.26156 1.14584 4.59663 0.144748C4.87782 0.0233279 5.18575 -0.0229005 5.4902 0.0105993C5.79465 0.044099 6.08515 0.156176 6.33321 0.335832C8.25607 1.73711 9.58284 3.85706 10.7221 5.52394C10.9728 5.89016 11.08 6.3358 11.0233 6.77596C10.9665 7.21611 10.7498 7.62001 10.4145 7.91069L8.06979 9.65207C7.95652 9.73387 7.87678 9.85401 7.84539 9.99016C7.81401 10.1263 7.8331 10.2692 7.89914 10.3924C8.43033 11.3574 9.37493 12.7947 10.4565 13.8764C11.5393 14.958 13.044 15.9651 14.0763 16.5563C14.2058 16.629 14.3581 16.6493 14.5021 16.6131C14.646 16.5769 14.7706 16.4869 14.8503 16.3616L16.3765 14.0386C16.6571 13.6659 17.0711 13.4162 17.5317 13.3418C17.9923 13.2674 18.4637 13.3741 18.8474 13.6396C20.5383 14.8101 22.5117 16.1141 23.9562 17.9636C24.1504 18.2135 24.274 18.5109 24.314 18.8249C24.3539 19.1388 24.3088 19.4577 24.1833 19.7483C23.1774 22.0954 20.6321 24.0939 17.9845 23.9966Z" fill="white"/>
</svg>
