<svg width="1728" height="840" viewBox="0 0 1728 840" fill="none" xmlns="http://www.w3.org/2000/svg">
<g clip-path="url(#clip0_101_1789)">
<mask id="mask0_101_1789" style="mask-type:alpha" maskUnits="userSpaceOnUse" x="0" y="0" width="1728" height="733">
<path d="M1728 0H0V732.994H1728V0Z" fill="#7C248A"/>
</mask>
<g mask="url(#mask0_101_1789)">
<path d="M1921.66 107.202C1924.17 95.0531 1925.58 83.1157 1925.88 71.3898C1926.57 61.9245 1928.16 51.1175 1930.67 38.9688L1930.34 -23.9706L1869.76 -19.3343C1861.55 26.5773 1850.91 64.7885 1837.85 95.2988C1839.22 76.3682 1839.83 52.9166 1839.68 24.9436C1838.92 20.4224 1837.98 14.7708 1836.84 7.98899C1838.28 3.0449 1838.43 -2.81776 1837.3 -9.59956L1832.18 -40.1177L1772.73 -28.6994L1776.71 -4.96325C1765.32 -5.10936 1748.62 -3.06784 1726.6 1.16113L1727.96 49.9021L1718.84 97.1554C1714.58 125.974 1703.87 150.199 1686.71 169.829L1657.09 196.518C1646.84 203.153 1633.29 210.424 1616.43 218.328C1612.03 219.174 1607.62 220.02 1603.22 220.865C1601.4 223.549 1598.28 225.313 1593.88 226.159L1580.67 228.697L1574.63 233.356L1568.03 234.625C1559.22 236.316 1550.41 238.008 1541.6 239.7C1532.8 241.391 1523.8 241.953 1514.61 241.384L1514.5 220.404C1480.72 222.226 1452.97 219.389 1431.26 211.892C1402.94 205.664 1377.35 195.41 1354.5 181.132C1339.4 172.366 1324.29 163.601 1309.18 154.835C1296.28 145.646 1280.79 134.62 1262.72 121.756L1209.09 86.5557C1191.02 73.6918 1169.65 61.4621 1144.98 49.8668C1120.31 38.2716 1096.2 30.0675 1072.67 25.2541C1045.79 14.0818 1018.96 9.90263 992.154 12.7168C978.185 10.733 964.405 9.87948 950.814 10.1562C937.603 12.6936 925.304 13.8893 913.916 13.7432L837.952 28.3332C827.322 32.7083 815.401 36.1644 802.19 38.7018C789.358 43.4998 777.816 49.2167 767.565 55.8523C754.733 60.6503 742.091 66.5786 729.638 73.6372C717.186 80.6958 705.834 87.5427 695.584 94.1784C667.412 115.923 646.757 135.057 633.619 151.581C623.747 160.477 614.977 169.162 607.307 177.636C600.016 188.37 591.624 199.315 582.132 210.472C567.55 231.94 554.792 250.724 543.856 266.825C533.299 285.187 523.653 302.207 514.919 317.885C505.806 331.303 496.503 343.589 487.011 354.746C477.898 368.164 468.405 379.321 458.533 388.217C439.169 408.27 417.946 424.014 394.863 435.447C382.41 442.506 368.477 447.515 353.065 450.476C339.853 453.013 324.441 455.973 306.826 459.356C276 465.277 246.806 467.384 219.247 465.677C193.889 463.547 170.164 457.603 148.072 447.846C135.546 440.918 124.122 433.778 113.797 426.427C103.473 419.077 94.0607 410.384 85.5593 400.35C65.9753 378.444 50.7946 355.691 40.018 332.093L-41.3038 375.714C-31.2856 394.791 -20.3561 412.525 -8.51526 428.918C3.7048 447.572 17.9375 464.673 34.1821 480.22C8.37173 461.843 -14.7048 439.441 -35.0472 413.014C-45.7505 403.402 -55.9217 390.188 -65.5607 373.372C-77.0224 359.24 -85.1814 344.473 -90.0376 329.072L-102.68 335C-109.286 336.269 -114.6 338.456 -118.625 341.563C-125.23 342.831 -134.76 346.995 -147.213 354.053C-140.534 366.771 -137.005 374.26 -136.626 376.521C-129.947 389.239 -126.228 397.858 -125.47 402.38L-97.6899 446.046C-106.118 449.998 -118.381 458.187 -134.479 470.613C-115.581 501.984 -96.5287 527.493 -77.3239 547.138C-52.957 570.46 -27.8685 591.309 -2.05811 609.686C26.3333 629.9 55.9787 644.041 86.8779 652.107C118.535 664.694 149.245 671.629 179.006 672.913L180.823 704.066C229.716 711.009 281.685 709.195 336.732 698.622L373.062 691.644C379.668 690.376 384.983 688.188 389.008 685.082C395.613 683.813 402.219 682.544 408.824 681.276C421.656 676.478 433.386 671.891 444.017 667.516C457.228 664.979 470.06 660.181 482.512 653.122C494.965 646.064 507.418 639.005 519.871 631.946C532.703 627.148 544.055 620.301 553.926 611.405C576.63 597.711 598.575 579.495 619.762 556.758C637.683 541.649 654.845 522.019 671.249 497.868C688.032 475.977 701.702 455.851 712.259 437.489L774.003 338.127C792.609 313.553 812.163 294.63 832.665 281.358C850.965 268.51 877.73 258.702 912.959 251.936C943.785 246.015 971.877 244.12 997.235 246.25C1023.35 252.901 1050.04 262.943 1077.29 276.376L1173.51 341.899C1191.58 354.763 1210.75 367.415 1231.01 379.856C1251.28 392.297 1273.56 403.185 1297.86 412.52C1322.53 424.115 1346.64 432.319 1370.17 437.132C1398.49 443.361 1424.23 447.751 1447.38 450.304C1498.1 454.564 1547.68 452.042 1596.12 442.738L1635.75 435.126C1641.98 431.597 1653.9 428.141 1671.51 424.758C1697.18 415.162 1722.46 403.305 1747.37 389.188C1759.82 382.129 1772.08 373.94 1784.16 364.621C1796.61 357.562 1807.58 348.455 1817.07 337.298C1826.94 328.402 1836.63 318.375 1846.12 307.218C1855.61 296.061 1864.92 283.774 1874.03 270.357C1883.14 256.939 1890.05 243.945 1894.76 231.373C1901.67 218.378 1908.59 205.384 1915.5 192.389C1920.21 179.818 1923.63 166.327 1925.75 151.918C1930.46 139.346 1934.07 126.986 1936.58 114.837L1921.66 107.202Z" fill="#7C248A"/>
<path d="M-137.799 285.677C-142.422 297.164 -145.889 308.651 -148.2 320.138C-150.511 329.328 -153.977 339.666 -158.599 351.153L-169 413.183L-106.6 420.076C-90.422 376.425 -73.0882 340.815 -54.5993 313.246C-59.2215 331.626 -63.844 354.599 -68.4663 382.168C-68.4663 386.763 -68.4663 392.507 -68.4663 399.399C-70.7774 403.994 -71.9328 409.737 -71.9328 416.629V447.644H-9.53268V423.522C2.02286 425.819 19.3559 426.968 42.467 426.968L49.4 378.722L66.7335 333.923C75.978 306.354 91 284.528 111.8 268.447L146.467 247.77C158.023 243.176 173.045 238.58 191.534 233.986C196.156 233.986 200.778 233.986 205.401 233.986C207.712 231.688 211.178 230.54 215.8 230.54H229.667L236.6 227.094H243.533C252.778 227.094 262.023 227.094 271.267 227.094C280.512 227.094 289.756 228.242 299 230.54L295.534 251.216C330.201 255.811 357.934 263.852 378.734 275.339C406.467 286.826 430.734 301.759 451.534 320.138C465.4 331.625 479.267 343.112 493.134 354.599C504.689 366.086 518.556 379.871 534.734 395.953L583.267 440.752C599.445 456.834 619.089 472.916 642.201 488.998C665.312 505.08 688.422 517.715 711.534 526.905C736.956 542.986 763.534 552.176 791.267 554.474C805.134 559.069 819.001 562.515 832.867 564.812C846.734 564.812 859.444 565.961 871 568.258H950.734C962.289 565.961 975 564.812 988.867 564.812C1002.73 562.515 1015.45 559.069 1027 554.474C1040.87 552.176 1054.73 548.73 1068.6 544.135C1082.47 539.541 1095.18 534.946 1106.73 530.351C1139.09 514.269 1163.36 499.336 1179.53 485.552C1191.09 478.66 1201.49 471.767 1210.73 464.875C1219.98 455.685 1230.38 446.496 1241.93 437.306C1260.42 418.927 1276.6 402.845 1290.47 389.061C1304.33 372.979 1317.05 358.045 1328.6 344.261C1340.16 332.774 1351.71 322.436 1363.27 313.246C1374.82 301.759 1386.38 292.57 1397.93 285.677C1421.04 269.596 1445.31 258.109 1470.73 251.216C1484.6 246.622 1499.62 244.324 1515.8 244.324C1529.67 244.324 1545.84 244.324 1564.33 244.324C1596.69 244.324 1626.73 247.77 1654.47 254.662C1679.89 261.555 1703 271.893 1723.8 285.677C1735.36 294.867 1745.76 304.057 1755 313.246C1764.24 322.436 1772.33 332.774 1779.27 344.261C1795.44 369.532 1807 394.804 1813.93 420.076L1904.07 392.507C1897.13 371.83 1889.04 352.302 1879.8 333.923C1870.56 313.246 1859 293.718 1845.13 275.339C1868.24 298.313 1887.89 324.733 1904.07 354.599C1913.31 366.086 1921.4 381.02 1928.33 399.399C1937.58 415.481 1943.36 431.563 1945.67 447.644L1959.53 444.198C1966.47 444.198 1972.24 443.049 1976.87 440.752C1983.8 440.752 1994.2 438.455 2008.07 433.86C2003.44 420.076 2001.13 412.035 2001.13 409.737C1996.51 395.953 1994.2 386.763 1994.2 382.168L1973.4 333.923C1982.64 331.626 1996.51 325.882 2015 316.692C2001.13 282.231 1986.11 253.514 1969.93 230.54C1949.13 202.971 1927.18 177.699 1904.07 154.725C1878.64 129.454 1850.91 109.926 1820.87 96.1413C1790.82 77.7621 1760.78 65.1266 1730.73 58.2343L1734.2 27.2193C1685.67 11.1375 1632.51 3.09668 1574.73 3.09668H1536.6C1529.67 3.09668 1523.89 4.24524 1519.27 6.54265C1512.33 6.54265 1505.4 6.54265 1498.47 6.54265C1484.6 8.84005 1471.89 11.1376 1460.33 13.435C1446.47 13.435 1432.6 15.7321 1418.73 20.327C1404.87 24.9218 1391 29.5169 1377.13 34.1117C1363.27 36.4091 1350.56 41.0038 1339 47.896C1313.58 57.0856 1288.16 70.8701 1262.73 89.2494C1241.93 100.736 1221.13 116.818 1200.33 137.495C1179.53 155.874 1162.2 173.104 1148.33 189.186L1068.6 275.339C1045.49 296.016 1022.38 310.949 999.267 320.138C978.467 329.328 949.578 333.923 912.6 333.923C880.245 333.923 851.356 330.477 825.933 323.585C800.511 312.098 775.089 297.164 749.667 278.785L663 196.079C646.823 179.997 629.489 163.915 611 147.833C592.511 131.751 571.712 116.818 548.601 103.034C525.49 86.9518 502.378 74.3163 479.267 65.1267C451.533 53.6397 426.112 44.4499 403.001 37.5577C352.156 23.7732 301.312 16.881 250.467 16.881H208.867C201.934 19.1784 189.222 20.327 170.734 20.327C143 24.9218 115.267 31.814 87.5335 41.0036C73.6668 45.5984 59.8001 51.3421 45.9334 58.2343C32.0668 62.8291 19.3564 69.7214 7.80083 78.911C-3.75473 85.8032 -15.3106 93.844 -26.8662 103.034C-38.4217 112.223 -49.9777 122.562 -61.5332 134.049C-73.0888 145.536 -82.333 157.023 -89.2663 168.51C-98.5108 179.997 -107.755 191.484 -116.999 202.971C-123.933 214.458 -129.711 227.094 -134.333 240.878C-141.266 252.365 -147.044 263.852 -151.666 275.339L-137.799 285.677Z" fill="#7C248A"/>
</g>
<mask id="mask1_101_1789" style="mask-type:alpha" maskUnits="userSpaceOnUse" x="-1" y="107" width="1728" height="733">
<path d="M1727 840H-1V107.006H1727V840Z" fill="#7C248A"/>
</mask>
<g mask="url(#mask1_101_1789)">
<path d="M2073.33 776.03C2076.88 788.38 2079.07 800.468 2079.9 812.294C2081.11 821.86 2083.49 832.818 2087.04 845.167L2089.07 908.559L2014.36 901.21C2002.49 854.595 1987.93 815.631 1970.68 784.317C1973.1 803.448 1974.75 827.101 1975.65 855.275C1974.9 859.796 1973.95 865.448 1972.81 872.229C1974.78 877.274 1975.19 883.187 1974.05 889.969L1968.93 920.487L1895.36 906.356L1899.34 882.62C1885.34 882.264 1864.72 879.469 1837.47 874.236L1837.26 825.193L1824.21 777.187C1817.86 747.966 1803.75 723.088 1781.88 702.554L1744.42 674.358C1731.56 667.221 1714.6 659.297 1693.56 650.589C1688.11 649.543 1682.66 648.496 1677.21 647.449C1674.87 644.665 1670.97 642.75 1665.52 641.703L1649.17 638.563L1641.57 633.602L1633.39 632.032C1622.49 629.939 1611.59 627.846 1600.69 625.752C1589.79 623.659 1578.71 622.696 1567.43 622.863L1568.1 643.993C1526.47 640.664 1492.44 642.296 1466.03 648.889C1431.43 653.912 1400.36 663.11 1372.8 676.485C1354.55 684.648 1336.31 692.811 1318.06 700.973C1302.54 709.66 1283.92 720.083 1262.19 732.244L1197.57 765.335C1175.85 777.496 1150.03 788.872 1120.13 799.463C1090.22 810.053 1060.89 817.253 1032.12 821.062C999.497 831.129 966.644 834.153 933.566 830.134C916.459 831.515 899.541 831.765 882.813 830.886C866.463 827.746 851.288 825.998 837.284 825.642L743.276 807.586C730.031 802.709 715.234 798.7 698.885 795.56C682.915 790.159 668.497 783.89 655.631 776.752C639.661 771.351 623.88 764.82 608.289 757.159C592.699 749.498 578.471 742.098 565.605 734.96C530.111 711.809 503.964 691.62 487.165 674.393C474.679 664.995 463.555 655.858 453.793 646.983C444.41 635.847 433.665 624.449 421.557 612.79C402.792 590.518 386.372 571.031 372.298 554.327C358.603 535.363 346.081 517.79 334.732 501.61C323.003 487.69 311.086 474.901 298.978 463.242C287.25 449.322 275.142 437.663 262.655 428.264C238.061 407.207 211.346 390.409 182.51 377.87C166.92 370.209 149.587 364.546 130.513 360.883C114.164 357.743 95.0903 354.079 73.2914 349.893C35.1433 342.566 -0.849518 339.153 -34.6854 339.654C-65.7964 340.679 -94.7512 345.619 -121.55 354.472C-136.691 360.898 -150.469 367.585 -162.885 374.534C-175.302 381.483 -186.545 389.824 -196.615 399.557C-219.86 420.76 -237.656 443.01 -250.002 466.307L-351.721 418.769C-340.134 399.993 -327.374 382.61 -313.441 366.619C-299.129 348.367 -282.281 331.768 -262.898 316.824C-293.939 334.196 -321.461 355.744 -345.464 381.469C-358.26 390.678 -370.261 403.541 -381.469 420.056C-395.023 433.786 -404.49 448.302 -409.869 463.603L-425.65 457.072C-433.824 455.502 -440.446 453.063 -445.516 449.756C-453.691 448.186 -465.574 443.57 -481.165 435.909C-473.44 423.392 -469.389 416.003 -469.009 413.743C-461.285 401.226 -457.042 392.707 -456.284 388.185L-423.797 345.423C-434.318 341.069 -449.719 332.277 -470.001 319.048C-447.964 288.279 -425.513 263.424 -402.647 244.481C-373.573 222.064 -343.516 202.169 -312.475 184.797C-278.331 165.687 -242.409 152.752 -204.711 145.992C-166.254 134.711 -128.746 129.081 -92.1849 129.103L-91.153 97.7998C-31.2767 92.966 32.7219 97.091 100.843 110.175L145.804 118.81C153.978 120.38 160.601 122.819 165.672 126.126C173.846 127.696 182.021 129.266 190.196 130.836C206.166 136.237 220.772 141.376 234.017 146.253C250.367 149.393 266.337 154.794 281.927 162.455C297.518 170.116 313.109 177.778 328.7 185.439C344.67 190.84 358.898 198.24 371.385 207.638C399.842 222.437 427.541 241.758 454.481 265.599C477.109 281.613 498.977 302.147 520.088 327.202C541.578 349.997 559.172 370.877 572.867 389.841L652.654 492.669C676.49 518.248 701.275 538.175 727.007 552.451C750.014 566.204 783.316 577.267 826.914 585.641C865.062 592.968 899.691 596.118 930.802 595.094C962.672 589.547 995.109 580.61 1028.12 568.282L1143.95 506.526C1165.68 494.366 1188.77 482.466 1213.22 470.829C1237.68 459.192 1264.66 449.208 1294.19 440.878C1324.09 430.287 1353.42 423.088 1382.19 419.279C1416.78 414.256 1448.27 410.97 1476.66 409.422C1538.88 407.372 1599.97 412.104 1659.91 423.617L1708.96 433.038C1716.76 436.868 1731.55 440.877 1753.35 445.064C1785.29 455.865 1816.85 468.927 1848.03 484.25C1863.63 491.911 1879.03 500.703 1894.24 510.625C1909.83 518.286 1923.68 527.946 1935.79 539.605C1948.27 549.004 1960.57 559.533 1972.68 571.192C1984.78 582.851 1996.7 595.641 2008.43 609.56C2020.16 623.48 2029.16 636.876 2035.44 649.749C2044.45 663.146 2053.45 676.542 2062.45 689.938C2068.73 702.811 2073.46 716.553 2076.63 731.163C2082.91 744.037 2087.83 756.648 2091.38 768.998L2073.33 776.03Z" fill="#7C248A"/>
<path d="M-135.385 505.07C-140.069 491.455 -143.582 477.84 -145.924 464.225C-148.266 453.333 -151.778 441.079 -156.461 427.464L-167 353.943L-103.771 345.774C-87.3787 397.511 -69.8148 439.718 -51.0804 472.394C-55.764 450.61 -60.4478 423.38 -65.1314 390.704C-65.1314 385.258 -65.1314 378.45 -65.1314 370.281C-67.4732 364.835 -68.6441 358.028 -68.6441 349.859V313.098H-5.41533V341.689C6.29367 338.966 23.8568 337.605 47.2748 337.605L54.2999 394.788L71.8636 447.887C81.2308 480.563 96.4523 506.432 117.528 525.493L152.656 549.999C164.365 555.445 179.587 560.892 198.321 566.338C203.004 566.338 207.688 566.338 212.372 566.338C214.714 569.061 218.226 570.422 222.91 570.422H236.961L243.986 574.507H251.011C260.378 574.507 269.746 574.507 279.113 574.507C288.48 574.507 297.847 573.145 307.215 570.422L303.702 545.915C338.829 540.469 366.931 530.939 388.007 517.324C416.109 503.709 440.697 486.009 461.773 464.225C475.824 450.61 489.875 436.995 503.926 423.38C515.635 409.765 529.686 393.427 546.078 374.366L595.256 321.267C611.648 302.206 631.554 283.145 654.972 264.084C678.39 245.023 701.808 230.046 725.226 219.154C750.985 200.093 777.916 189.201 806.018 186.478C820.069 181.032 834.12 176.947 848.17 174.224C862.221 174.224 875.1 172.863 886.809 170.14H967.602C979.311 172.863 992.191 174.224 1006.24 174.224C1020.29 176.947 1033.17 181.032 1044.88 186.478C1058.93 189.201 1072.98 193.285 1087.03 198.731C1101.08 204.178 1113.96 209.623 1125.67 215.069C1158.46 234.13 1183.05 251.83 1199.44 268.168C1211.15 276.337 1221.69 284.506 1231.05 292.675C1240.42 303.567 1250.96 314.459 1262.67 325.351C1281.4 347.136 1297.8 366.196 1311.85 382.534C1325.9 401.595 1338.78 419.295 1350.49 435.634C1362.2 449.249 1373.9 461.502 1385.61 472.394C1397.32 486.009 1409.03 496.901 1420.74 505.07C1444.16 524.131 1468.75 537.746 1494.51 545.915C1508.56 551.361 1523.78 554.084 1540.17 554.084C1554.22 554.084 1570.61 554.084 1589.35 554.084C1622.13 554.084 1652.58 550 1680.68 541.831C1706.44 533.662 1729.86 521.408 1750.93 505.07C1762.64 494.178 1773.18 483.286 1782.55 472.394C1791.91 461.502 1800.11 449.249 1807.14 435.634C1823.53 405.68 1835.24 375.727 1842.26 345.774L1933.59 378.45C1926.57 402.957 1918.37 426.103 1909 447.887C1899.64 472.394 1887.93 495.54 1873.88 517.324C1897.3 490.093 1917.2 458.779 1933.59 423.38C1942.96 409.765 1951.16 392.065 1958.18 370.281C1967.55 351.22 1973.4 332.159 1975.75 313.098L1989.8 317.182C1996.82 317.182 2002.68 318.544 2007.36 321.267C2014.39 321.267 2024.92 323.99 2038.97 329.436C2034.29 345.774 2031.95 355.304 2031.95 358.027C2027.27 374.365 2024.92 385.258 2024.92 390.704L2003.85 447.887C2013.21 450.61 2027.27 457.417 2046 468.309C2031.95 509.154 2016.73 543.192 2000.33 570.422C1979.26 603.098 1957.01 633.051 1933.59 660.281C1907.83 690.235 1879.73 713.38 1849.29 729.718C1818.85 751.503 1788.4 766.479 1757.96 774.648L1761.47 811.409C1712.29 830.47 1658.43 840 1599.89 840H1561.25C1554.22 840 1548.37 838.639 1543.68 835.916C1536.66 835.916 1529.63 835.916 1522.61 835.916C1508.56 833.193 1495.68 830.469 1483.97 827.746C1469.92 827.746 1455.87 825.024 1441.82 819.578C1427.77 814.132 1413.71 808.685 1399.66 803.239C1385.61 800.516 1372.73 795.07 1361.02 786.901C1335.26 776.009 1309.5 759.671 1283.74 737.887C1262.67 724.272 1241.59 705.211 1220.52 680.704C1199.44 658.92 1181.88 638.497 1167.83 619.436L1087.03 517.324C1063.62 492.817 1040.2 475.117 1016.78 464.225C995.703 453.333 966.431 447.887 928.962 447.887C896.177 447.887 866.904 451.971 841.144 460.14C815.385 473.755 789.625 491.455 763.866 513.239L676.048 611.267C659.655 630.328 642.091 649.39 623.357 668.451C604.623 687.512 583.547 705.211 560.129 721.549C536.711 740.61 513.293 755.587 489.875 766.479C461.773 780.094 436.014 790.986 412.596 799.155C361.076 815.493 309.557 823.662 258.037 823.662H215.885C208.859 820.939 195.979 819.578 177.245 819.578C149.143 814.132 121.041 805.963 92.9397 795.071C78.8889 789.625 64.8381 782.817 50.7873 774.648C36.7365 769.202 23.8573 761.033 12.1483 750.141C0.439362 741.972 -11.27 732.441 -22.979 721.549C-34.688 710.657 -46.3974 698.404 -58.1064 684.789C-69.8154 671.174 -79.1823 657.559 -86.2077 643.944C-95.5749 630.328 -104.942 616.714 -114.309 603.099C-121.334 589.483 -127.189 574.507 -131.873 558.169C-138.898 544.554 -144.753 530.939 -149.436 517.324L-135.385 505.07Z" fill="#7C248A"/>
</g>
<path d="M1728 137.032H0V733.161H1728V137.032Z" fill="#7C248A"/>
</g>
<defs>
<clipPath id="clip0_101_1789">
<rect width="1728" height="840" fill="white"/>
</clipPath>
</defs>
</svg>
