<svg width="40" height="40" viewBox="0 0 40 40" fill="none" xmlns="http://www.w3.org/2000/svg">
<rect width="40" height="40" rx="20" fill="white"/>
<path d="M11.4286 9.5C9.5375 9.5 8 10.8453 8 12.5V27.5C8 29.1547 9.5375 30.5 11.4286 30.5H28.5714C30.4625 30.5 32 29.1547 32 27.5V12.5C32 10.8453 30.4625 9.5 28.5714 9.5H11.4286ZM27.3446 13.4375L21.7839 18.9969L28.325 26.5625H23.2036L19.1964 21.9734L14.6054 26.5625H12.0607L18.0071 20.6141L11.7339 13.4375H16.9839L20.6107 17.6328L24.8 13.4375H27.3446ZM25.3196 25.2313L16.2179 14.6984H14.7018L23.9054 25.2313H25.3143H25.3196Z" fill="black"/>
</svg>
